<?xml version="1.0" encoding="utf-8" standalone="no"?>
<!DOCTYPE svg PUBLIC "-//W3C//DTD SVG 1.1//EN"
  "http://www.w3.org/Graphics/SVG/1.1/DTD/svg11.dtd">
<svg xmlns:xlink="http://www.w3.org/1999/xlink" width="792pt" height="302.4pt" viewBox="0 0 792 302.4" xmlns="http://www.w3.org/2000/svg" version="1.1">
 <metadata>
  <rdf:RDF xmlns:dc="http://purl.org/dc/elements/1.1/" xmlns:cc="http://creativecommons.org/ns#" xmlns:rdf="http://www.w3.org/1999/02/22-rdf-syntax-ns#">
   <cc:Work>
    <dc:type rdf:resource="http://purl.org/dc/dcmitype/StillImage"/>
    <dc:date>2026-08-26T11:38:41.655490</dc:date>
    <dc:format>image/svg+xml</dc:format>
    <dc:creator>
     <cc:Agent>
      <dc:title>Matplotlib v3.10.9, https://matplotlib.org/</dc:title>
     </cc:Agent>
    </dc:creator>
   </cc:Work>
  </rdf:RDF>
 </metadata>
 <defs>
  <style type="text/css">*{stroke-linejoin: round; stroke-linecap: butt}</style>
 </defs>
 <g id="figure_1">
  <g id="patch_1">
   <path d="M 0 302.4 
L 792 302.4 
L 792 0 
L 0 0 
z
" style="fill: #ffffff"/>
  </g>
  <g id="axes_1">
   <g id="patch_2">
    <path d="M 39.58149 271.523823 
L 392.04 271.523823 
L 392.04 33.245095 
L 39.58149 33.245095 
z
" style="fill: #ffffff"/>
   </g>
   <g id="FillBetweenPolyCollection_1">
    <path d="M 138.434998 260.692971 
L 55.840694 260.692971 
L 55.602331 260.579171 
L 56.565901 260.46537 
L 58.592829 260.35157 
L 61.453575 260.237769 
L 64.864816 260.123969 
L 68.531301 260.010168 
L 72.184074 259.896368 
L 75.608613 259.782567 
L 78.659564 259.668767 
L 81.262116 259.554966 
L 83.402749 259.441166 
L 85.113564 259.327365 
L 86.454526 259.213565 
L 87.497166 259.099764 
L 88.311925 258.985964 
L 88.959987 258.872163 
L 89.489387 258.758363 
L 89.934529 258.644562 
L 90.318003 258.530762 
L 90.653606 258.416961 
L 90.949655 258.303161 
L 91.211913 258.18936 
L 91.445707 258.07556 
L 91.657058 257.96176 
L 91.852856 257.847959 
L 92.040303 257.734159 
L 92.225939 257.620358 
L 92.414637 257.506558 
L 92.608861 257.392757 
L 92.808395 257.278957 
L 93.010581 257.165156 
L 93.210983 257.051356 
L 93.404284 256.937555 
L 93.585206 256.823755 
L 93.749307 256.709954 
L 93.89354 256.596154 
L 94.016572 256.482353 
L 94.118893 256.368553 
L 94.202759 256.254752 
L 94.272001 256.140952 
L 94.331713 256.027151 
L 94.387801 255.913351 
L 94.446415 255.79955 
L 94.513288 255.68575 
L 94.593077 255.571949 
L 94.688803 255.458149 
L 94.801519 255.344348 
L 94.930262 255.230548 
L 95.072331 255.116747 
L 95.223797 255.002947 
L 95.380156 254.889146 
L 95.53695 254.775346 
L 95.690231 254.661545 
L 95.836789 254.547745 
L 95.974124 254.433944 
L 96.100263 254.320144 
L 96.213517 254.206343 
L 96.31233 254.092543 
L 96.395304 253.978742 
L 96.461417 253.864942 
L 96.510378 253.751141 
L 96.543007 253.637341 
L 96.561479 253.52354 
L 96.569335 253.40974 
L 96.571188 253.295939 
L 96.572169 253.182139 
L 96.5772 253.068338 
L 96.590271 252.954538 
L 96.613864 252.840737 
L 96.648648 252.726937 
L 96.693509 252.613137 
L 96.74587 252.499336 
L 96.802221 252.385536 
L 96.858717 252.271735 
L 96.911733 252.157935 
L 96.958263 252.044134 
L 96.996132 251.930334 
L 97.024041 251.816533 
L 97.041468 251.702733 
L 97.048527 251.588932 
L 97.04582 251.475132 
L 97.034327 251.361331 
L 97.01535 251.247531 
L 96.990475 251.13373 
L 96.961525 251.01993 
L 96.930479 250.906129 
L 96.899332 250.792329 
L 96.869918 250.678528 
L 96.843727 250.564728 
L 96.82177 250.450927 
L 96.80453 250.337127 
L 96.792029 250.223326 
L 96.783994 250.109526 
L 96.780068 249.995725 
L 96.78001 249.881925 
L 96.783819 249.768124 
L 96.791734 249.654324 
L 96.804122 249.540523 
L 96.82128 249.426723 
L 97.454412 249.426723 
L 97.454412 249.426723 
L 97.47157 249.540523 
L 97.483958 249.654324 
L 97.491873 249.768124 
L 97.495682 249.881925 
L 97.495624 249.995725 
L 97.491698 250.109526 
L 97.483663 250.223326 
L 97.471162 250.337127 
L 97.453922 250.450927 
L 97.431965 250.564728 
L 97.405774 250.678528 
L 97.37636 250.792329 
L 97.345213 250.906129 
L 97.314167 251.01993 
L 97.285217 251.13373 
L 97.260342 251.247531 
L 97.241365 251.361331 
L 97.229872 251.475132 
L 97.227165 251.588932 
L 97.234224 251.702733 
L 97.251651 251.816533 
L 97.27956 251.930334 
L 97.31743 252.044134 
L 97.363959 252.157935 
L 97.416975 252.271735 
L 97.473471 252.385536 
L 97.529822 252.499336 
L 97.582183 252.613137 
L 97.627044 252.726937 
L 97.661828 252.840737 
L 97.685421 252.954538 
L 97.698492 253.068338 
L 97.703523 253.182139 
L 97.704504 253.295939 
L 97.706357 253.40974 
L 97.714213 253.52354 
L 97.732685 253.637341 
L 97.765314 253.751141 
L 97.814275 253.864942 
L 97.880388 253.978742 
L 97.963362 254.092543 
L 98.062175 254.206343 
L 98.175429 254.320144 
L 98.301568 254.433944 
L 98.438903 254.547745 
L 98.585461 254.661545 
L 98.738743 254.775346 
L 98.895536 254.889146 
L 99.051895 255.002947 
L 99.203361 255.116747 
L 99.34543 255.230548 
L 99.474173 255.344348 
L 99.586889 255.458149 
L 99.682615 255.571949 
L 99.762404 255.68575 
L 99.829277 255.79955 
L 99.887891 255.913351 
L 99.943979 256.027151 
L 100.003691 256.140952 
L 100.072934 256.254752 
L 100.156799 256.368553 
L 100.25912 256.482353 
L 100.382152 256.596154 
L 100.526385 256.709954 
L 100.690486 256.823755 
L 100.871408 256.937555 
L 101.064709 257.051356 
L 101.265111 257.165156 
L 101.467297 257.278957 
L 101.666831 257.392757 
L 101.861055 257.506558 
L 102.049753 257.620358 
L 102.23539 257.734159 
L 102.422836 257.847959 
L 102.618634 257.96176 
L 102.829985 258.07556 
L 103.063779 258.18936 
L 103.326037 258.303161 
L 103.622086 258.416961 
L 103.957689 258.530762 
L 104.341163 258.644562 
L 104.786305 258.758363 
L 105.315705 258.872163 
L 105.963767 258.985964 
L 106.778526 259.099764 
L 107.821166 259.213565 
L 109.162128 259.327365 
L 110.872943 259.441166 
L 113.013576 259.554966 
L 115.616128 259.668767 
L 118.667079 259.782567 
L 122.091618 259.896368 
L 125.744391 260.010168 
L 129.410876 260.123969 
L 132.822117 260.237769 
L 135.682863 260.35157 
L 137.709791 260.46537 
L 138.673361 260.579171 
L 138.434998 260.692971 
z
" clip-path="url(#p4ba54043cd)" style="fill: #1baf7a; fill-opacity: 0.6"/>
   </g>
   <g id="FillBetweenPolyCollection_2">
    <path d="M 230.321645 239.599992 
L 201.299845 239.599992 
L 198.708959 238.06213 
L 195.972945 236.524267 
L 193.151135 234.986405 
L 190.311081 233.448542 
L 187.52491 231.91068 
L 184.865261 230.372817 
L 182.401173 228.834955 
L 180.194316 227.297093 
L 178.29585 225.75923 
L 176.744138 224.221368 
L 175.563399 222.683505 
L 174.763334 221.145643 
L 174.339626 219.60778 
L 174.27523 218.069918 
L 174.542276 216.532056 
L 175.104451 214.994193 
L 175.919699 213.456331 
L 176.943042 211.918468 
L 178.129377 210.380606 
L 179.436033 208.842743 
L 180.824911 207.304881 
L 182.264029 205.767019 
L 183.728351 204.229156 
L 185.199821 202.691294 
L 186.666647 201.153431 
L 188.121946 199.615569 
L 189.561979 198.077706 
L 190.984233 196.539844 
L 192.385687 195.001982 
L 193.761495 193.464119 
L 195.104307 191.926257 
L 196.404293 190.388394 
L 197.649814 188.850532 
L 198.828574 187.312669 
L 199.929 185.774807 
L 200.94156 184.236945 
L 201.85978 182.699082 
L 202.680769 181.16122 
L 203.405214 179.623357 
L 204.036873 178.085495 
L 204.581744 176.547632 
L 205.047097 175.00977 
L 205.440621 173.471908 
L 205.76983 171.934045 
L 206.041855 170.396183 
L 206.26361 168.85832 
L 206.442235 167.320458 
L 206.585642 165.782595 
L 206.702982 164.244733 
L 206.804833 162.706871 
L 206.903017 161.169008 
L 207.00999 159.631146 
L 207.137899 158.093283 
L 207.297443 156.555421 
L 207.496732 155.017558 
L 207.740371 153.479696 
L 208.028917 151.941834 
L 208.358814 150.403971 
L 208.722836 148.866109 
L 209.110949 147.328246 
L 209.511453 145.790384 
L 209.912239 144.252521 
L 210.30196 142.714659 
L 210.670979 141.176797 
L 211.011991 139.638934 
L 211.320296 138.101072 
L 211.593758 136.563209 
L 211.832531 135.025347 
L 212.038666 133.487484 
L 212.215686 131.949622 
L 212.368191 130.41176 
L 212.501536 128.873897 
L 212.621541 127.336035 
L 212.734221 125.798172 
L 212.845471 124.26031 
L 212.960696 122.722447 
L 213.084394 121.184585 
L 213.219727 119.646723 
L 213.368165 118.10886 
L 213.529264 116.570998 
L 213.700657 115.033135 
L 213.878273 113.495273 
L 214.056788 111.95741 
L 214.23023 110.419548 
L 214.392683 108.881686 
L 214.538966 107.343823 
L 214.665195 105.805961 
L 214.769176 104.268098 
L 214.850557 102.730236 
L 214.91077 101.192373 
L 214.952765 99.654511 
L 214.980602 98.116649 
L 214.998961 96.578786 
L 215.012643 95.040924 
L 215.026106 93.503061 
L 215.043092 91.965199 
L 215.066373 90.427336 
L 215.097614 88.889474 
L 215.137369 87.351612 
L 216.484121 87.351612 
L 216.484121 87.351612 
L 216.523876 88.889474 
L 216.555117 90.427336 
L 216.578398 91.965199 
L 216.595384 93.503061 
L 216.608847 95.040924 
L 216.622529 96.578786 
L 216.640888 98.116649 
L 216.668725 99.654511 
L 216.71072 101.192373 
L 216.770933 102.730236 
L 216.852314 104.268098 
L 216.956295 105.805961 
L 217.082524 107.343823 
L 217.228807 108.881686 
L 217.39126 110.419548 
L 217.564702 111.95741 
L 217.743217 113.495273 
L 217.920833 115.033135 
L 218.092226 116.570998 
L 218.253325 118.10886 
L 218.401763 119.646723 
L 218.537096 121.184585 
L 218.660794 122.722447 
L 218.776019 124.26031 
L 218.887269 125.798172 
L 218.999949 127.336035 
L 219.119954 128.873897 
L 219.253299 130.41176 
L 219.405804 131.949622 
L 219.582824 133.487484 
L 219.788959 135.025347 
L 220.027732 136.563209 
L 220.301194 138.101072 
L 220.609499 139.638934 
L 220.950511 141.176797 
L 221.31953 142.714659 
L 221.709251 144.252521 
L 222.110037 145.790384 
L 222.510541 147.328246 
L 222.898654 148.866109 
L 223.262676 150.403971 
L 223.592573 151.941834 
L 223.881119 153.479696 
L 224.124758 155.017558 
L 224.324047 156.555421 
L 224.483591 158.093283 
L 224.6115 159.631146 
L 224.718473 161.169008 
L 224.816657 162.706871 
L 224.918508 164.244733 
L 225.035848 165.782595 
L 225.179255 167.320458 
L 225.35788 168.85832 
L 225.579635 170.396183 
L 225.85166 171.934045 
L 226.180869 173.471908 
L 226.574393 175.00977 
L 227.039746 176.547632 
L 227.584617 178.085495 
L 228.216276 179.623357 
L 228.940721 181.16122 
L 229.76171 182.699082 
L 230.67993 184.236945 
L 231.69249 185.774807 
L 232.792916 187.312669 
L 233.971676 188.850532 
L 235.217197 190.388394 
L 236.517183 191.926257 
L 237.859995 193.464119 
L 239.235803 195.001982 
L 240.637257 196.539844 
L 242.059511 198.077706 
L 243.499544 199.615569 
L 244.954843 201.153431 
L 246.421669 202.691294 
L 247.893139 204.229156 
L 249.357461 205.767019 
L 250.796579 207.304881 
L 252.185457 208.842743 
L 253.492113 210.380606 
L 254.678448 211.918468 
L 255.701791 213.456331 
L 256.517039 214.994193 
L 257.079214 216.532056 
L 257.34626 218.069918 
L 257.281864 219.60778 
L 256.858156 221.145643 
L 256.058091 222.683505 
L 254.877352 224.221368 
L 253.32564 225.75923 
L 251.427174 227.297093 
L 249.220317 228.834955 
L 246.756229 230.372817 
L 244.09658 231.91068 
L 241.310409 233.448542 
L 238.470355 234.986405 
L 235.648545 236.524267 
L 232.912531 238.06213 
L 230.321645 239.599992 
z
" clip-path="url(#p4ba54043cd)" style="fill: #2a78d6; fill-opacity: 0.6"/>
   </g>
   <g id="FillBetweenPolyCollection_3">
    <path d="M 340.960739 260.692971 
L 328.006549 260.692971 
L 326.749389 258.50492 
L 325.350827 256.31687 
L 323.81655 254.128819 
L 322.156529 251.940768 
L 320.384862 249.752717 
L 318.51936 247.564667 
L 316.580908 245.376616 
L 314.592643 243.188565 
L 312.579013 241.000514 
L 310.564814 238.812464 
L 308.574274 236.624413 
L 306.630283 234.436362 
L 304.753834 232.248311 
L 302.963737 230.060261 
L 301.276619 227.87221 
L 299.707209 225.684159 
L 298.268845 223.496108 
L 296.97411 221.308058 
L 295.835478 219.120007 
L 294.865807 216.931956 
L 294.078562 214.743905 
L 293.48763 212.555855 
L 293.106686 210.367804 
L 292.948129 208.179753 
L 293.021671 205.991702 
L 293.33277 203.803652 
L 293.881123 201.615601 
L 294.659473 199.42755 
L 295.652931 197.239499 
L 296.838986 195.051449 
L 298.188245 192.863398 
L 299.665868 190.675347 
L 301.233526 188.487296 
L 302.851678 186.299245 
L 304.481888 184.111195 
L 306.088936 181.923144 
L 307.642506 179.735093 
L 309.118338 177.547042 
L 310.498782 175.358992 
L 311.772812 173.170941 
L 312.935593 170.98289 
L 313.987745 168.794839 
L 314.934441 166.606789 
L 315.784455 164.418738 
L 316.549242 162.230687 
L 317.24209 160.042636 
L 317.877331 157.854586 
L 318.469619 155.666535 
L 319.033241 153.478484 
L 319.581452 151.290433 
L 320.12587 149.102383 
L 320.675931 146.914332 
L 321.238491 144.726281 
L 321.817588 142.53823 
L 322.414408 140.35018 
L 323.02747 138.162129 
L 323.652987 135.974078 
L 324.285378 133.786027 
L 324.917833 131.597977 
L 325.542891 129.409926 
L 326.152942 127.221875 
L 326.740631 125.033824 
L 327.299127 122.845774 
L 327.822294 120.657723 
L 328.304764 118.469672 
L 328.741968 116.281621 
L 329.130155 114.09357 
L 329.466415 111.90552 
L 329.748729 109.717469 
L 329.976028 107.529418 
L 330.148253 105.341367 
L 330.266398 103.153317 
L 330.33252 100.965266 
L 330.349706 98.777215 
L 330.322011 96.589164 
L 330.254377 94.401114 
L 330.152534 92.213063 
L 330.022921 90.025012 
L 329.872606 87.836961 
L 329.709211 85.648911 
L 329.540828 83.46086 
L 329.375898 81.272809 
L 329.223035 79.084758 
L 329.090794 76.896708 
L 328.987354 74.708657 
L 328.920169 72.520606 
L 328.895578 70.332555 
L 328.918442 68.144505 
L 328.991823 65.956454 
L 329.116774 63.768403 
L 329.292236 61.580352 
L 329.515086 59.392302 
L 329.780312 57.204251 
L 330.081323 55.0162 
L 330.410337 52.828149 
L 330.758839 50.640099 
L 331.118048 48.452048 
L 331.479371 46.263997 
L 331.834805 44.075946 
L 337.132483 44.075946 
L 337.132483 44.075946 
L 337.487917 46.263997 
L 337.84924 48.452048 
L 338.208449 50.640099 
L 338.556951 52.828149 
L 338.885965 55.0162 
L 339.186976 57.204251 
L 339.452202 59.392302 
L 339.675051 61.580352 
L 339.850514 63.768403 
L 339.975465 65.956454 
L 340.048846 68.144505 
L 340.07171 70.332555 
L 340.047119 72.520606 
L 339.979934 74.708657 
L 339.876494 76.896708 
L 339.744253 79.084758 
L 339.59139 81.272809 
L 339.42646 83.46086 
L 339.258077 85.648911 
L 339.094682 87.836961 
L 338.944367 90.025012 
L 338.814754 92.213063 
L 338.712911 94.401114 
L 338.645277 96.589164 
L 338.617582 98.777215 
L 338.634768 100.965266 
L 338.70089 103.153317 
L 338.819035 105.341367 
L 338.99126 107.529418 
L 339.218559 109.717469 
L 339.500872 111.90552 
L 339.837133 114.09357 
L 340.22532 116.281621 
L 340.662524 118.469672 
L 341.144994 120.657723 
L 341.668161 122.845774 
L 342.226657 125.033824 
L 342.814346 127.221875 
L 343.424397 129.409926 
L 344.049455 131.597977 
L 344.68191 133.786027 
L 345.314301 135.974078 
L 345.939818 138.162129 
L 346.55288 140.35018 
L 347.1497 142.53823 
L 347.728797 144.726281 
L 348.291357 146.914332 
L 348.841418 149.102383 
L 349.385836 151.290433 
L 349.934047 153.478484 
L 350.497669 155.666535 
L 351.089957 157.854586 
L 351.725198 160.042636 
L 352.418046 162.230687 
L 353.182833 164.418738 
L 354.032847 166.606789 
L 354.979543 168.794839 
L 356.031695 170.98289 
L 357.194476 173.170941 
L 358.468506 175.358992 
L 359.84895 177.547042 
L 361.324782 179.735093 
L 362.878352 181.923144 
L 364.4854 184.111195 
L 366.11561 186.299245 
L 367.733762 188.487296 
L 369.30142 190.675347 
L 370.779043 192.863398 
L 372.128302 195.051449 
L 373.314357 197.239499 
L 374.307815 199.42755 
L 375.086165 201.615601 
L 375.634518 203.803652 
L 375.945617 205.991702 
L 376.019159 208.179753 
L 375.860602 210.367804 
L 375.479658 212.555855 
L 374.888726 214.743905 
L 374.101481 216.931956 
L 373.13181 219.120007 
L 371.993178 221.308058 
L 370.698443 223.496108 
L 369.260079 225.684159 
L 367.690669 227.87221 
L 366.003551 230.060261 
L 364.213454 232.248311 
L 362.337005 234.436362 
L 360.393014 236.624413 
L 358.402474 238.812464 
L 356.388275 241.000514 
L 354.374645 243.188565 
L 352.38638 245.376616 
L 350.447928 247.564667 
L 348.582426 249.752717 
L 346.810759 251.940768 
L 345.150738 254.128819 
L 343.616461 256.31687 
L 342.217899 258.50492 
L 340.960739 260.692971 
z
" clip-path="url(#p4ba54043cd)" style="fill: #eb6834; fill-opacity: 0.6"/>
   </g>
   <g id="matplotlib.axis_1">
    <g id="xtick_1">
     <g id="line2d_1">
      <path d="M 97.137846 271.523823 
L 97.137846 33.245095 
" clip-path="url(#p4ba54043cd)" style="fill: none; stroke: #b0b0b0; stroke-opacity: 0.25; stroke-width: 0.8; stroke-linecap: square"/>
     </g>
     <g id="line2d_2">
      <defs>
       <path id="m3194ed9608" d="M 0 0 
L 0 3.5 
" style="stroke: #000000; stroke-width: 0.8"/>
      </defs>
      <g>
       <use xlink:href="#m3194ed9608" x="97.137846" y="271.523823" style="stroke: #000000; stroke-width: 0.8"/>
      </g>
     </g>
     <g id="text_1">
      <!-- real vs real -->
      <g transform="translate(69.450346 286.12226) scale(0.1 -0.1)">
       <defs>
        <path id="DejaVuSans-72" d="M 2631 2963 
Q 2534 3019 2420 3045 
Q 2306 3072 2169 3072 
Q 1681 3072 1420 2755 
Q 1159 2438 1159 1844 
L 1159 0 
L 581 0 
L 581 3500 
L 1159 3500 
L 1159 2956 
Q 1341 3275 1631 3429 
Q 1922 3584 2338 3584 
Q 2397 3584 2469 3576 
Q 2541 3569 2628 3553 
L 2631 2963 
z
" transform="scale(0.015625)"/>
        <path id="DejaVuSans-65" d="M 3597 1894 
L 3597 1613 
L 953 1613 
Q 991 1019 1311 708 
Q 1631 397 2203 397 
Q 2534 397 2845 478 
Q 3156 559 3463 722 
L 3463 178 
Q 3153 47 2828 -22 
Q 2503 -91 2169 -91 
Q 1331 -91 842 396 
Q 353 884 353 1716 
Q 353 2575 817 3079 
Q 1281 3584 2069 3584 
Q 2775 3584 3186 3129 
Q 3597 2675 3597 1894 
z
M 3022 2063 
Q 3016 2534 2758 2815 
Q 2500 3097 2075 3097 
Q 1594 3097 1305 2825 
Q 1016 2553 972 2059 
L 3022 2063 
z
" transform="scale(0.015625)"/>
        <path id="DejaVuSans-61" d="M 2194 1759 
Q 1497 1759 1228 1600 
Q 959 1441 959 1056 
Q 959 750 1161 570 
Q 1363 391 1709 391 
Q 2188 391 2477 730 
Q 2766 1069 2766 1631 
L 2766 1759 
L 2194 1759 
z
M 3341 1997 
L 3341 0 
L 2766 0 
L 2766 531 
Q 2569 213 2275 61 
Q 1981 -91 1556 -91 
Q 1019 -91 701 211 
Q 384 513 384 1019 
Q 384 1609 779 1909 
Q 1175 2209 1959 2209 
L 2766 2209 
L 2766 2266 
Q 2766 2663 2505 2880 
Q 2244 3097 1772 3097 
Q 1472 3097 1187 3025 
Q 903 2953 641 2809 
L 641 3341 
Q 956 3463 1253 3523 
Q 1550 3584 1831 3584 
Q 2591 3584 2966 3190 
Q 3341 2797 3341 1997 
z
" transform="scale(0.015625)"/>
        <path id="DejaVuSans-6c" d="M 603 4863 
L 1178 4863 
L 1178 0 
L 603 0 
L 603 4863 
z
" transform="scale(0.015625)"/>
        <path id="DejaVuSans-20" transform="scale(0.015625)"/>
        <path id="DejaVuSans-76" d="M 191 3500 
L 800 3500 
L 1894 563 
L 2988 3500 
L 3597 3500 
L 2284 0 
L 1503 0 
L 191 3500 
z
" transform="scale(0.015625)"/>
        <path id="DejaVuSans-73" d="M 2834 3397 
L 2834 2853 
Q 2591 2978 2328 3040 
Q 2066 3103 1784 3103 
Q 1356 3103 1142 2972 
Q 928 2841 928 2578 
Q 928 2378 1081 2264 
Q 1234 2150 1697 2047 
L 1894 2003 
Q 2506 1872 2764 1633 
Q 3022 1394 3022 966 
Q 3022 478 2636 193 
Q 2250 -91 1575 -91 
Q 1294 -91 989 -36 
Q 684 19 347 128 
L 347 722 
Q 666 556 975 473 
Q 1284 391 1588 391 
Q 1994 391 2212 530 
Q 2431 669 2431 922 
Q 2431 1156 2273 1281 
Q 2116 1406 1581 1522 
L 1381 1569 
Q 847 1681 609 1914 
Q 372 2147 372 2553 
Q 372 3047 722 3315 
Q 1072 3584 1716 3584 
Q 2034 3584 2315 3537 
Q 2597 3491 2834 3397 
z
" transform="scale(0.015625)"/>
       </defs>
       <use xlink:href="#DejaVuSans-72"/>
       <use xlink:href="#DejaVuSans-65" transform="translate(38.863281 0)"/>
       <use xlink:href="#DejaVuSans-61" transform="translate(100.386719 0)"/>
       <use xlink:href="#DejaVuSans-6c" transform="translate(161.666016 0)"/>
       <use xlink:href="#DejaVuSans-20" transform="translate(189.449219 0)"/>
       <use xlink:href="#DejaVuSans-76" transform="translate(221.236328 0)"/>
       <use xlink:href="#DejaVuSans-73" transform="translate(280.416016 0)"/>
       <use xlink:href="#DejaVuSans-20" transform="translate(332.515625 0)"/>
       <use xlink:href="#DejaVuSans-72" transform="translate(364.302734 0)"/>
       <use xlink:href="#DejaVuSans-65" transform="translate(403.166016 0)"/>
       <use xlink:href="#DejaVuSans-61" transform="translate(464.689453 0)"/>
       <use xlink:href="#DejaVuSans-6c" transform="translate(525.96875 0)"/>
      </g>
      <!-- (noise floor) -->
      <g transform="translate(67.025346 297.320073) scale(0.1 -0.1)">
       <defs>
        <path id="DejaVuSans-28" d="M 1984 4856 
Q 1566 4138 1362 3434 
Q 1159 2731 1159 2009 
Q 1159 1288 1364 580 
Q 1569 -128 1984 -844 
L 1484 -844 
Q 1016 -109 783 600 
Q 550 1309 550 2009 
Q 550 2706 781 3412 
Q 1013 4119 1484 4856 
L 1984 4856 
z
" transform="scale(0.015625)"/>
        <path id="DejaVuSans-6e" d="M 3513 2113 
L 3513 0 
L 2938 0 
L 2938 2094 
Q 2938 2591 2744 2837 
Q 2550 3084 2163 3084 
Q 1697 3084 1428 2787 
Q 1159 2491 1159 1978 
L 1159 0 
L 581 0 
L 581 3500 
L 1159 3500 
L 1159 2956 
Q 1366 3272 1645 3428 
Q 1925 3584 2291 3584 
Q 2894 3584 3203 3211 
Q 3513 2838 3513 2113 
z
" transform="scale(0.015625)"/>
        <path id="DejaVuSans-6f" d="M 1959 3097 
Q 1497 3097 1228 2736 
Q 959 2375 959 1747 
Q 959 1119 1226 758 
Q 1494 397 1959 397 
Q 2419 397 2687 759 
Q 2956 1122 2956 1747 
Q 2956 2369 2687 2733 
Q 2419 3097 1959 3097 
z
M 1959 3584 
Q 2709 3584 3137 3096 
Q 3566 2609 3566 1747 
Q 3566 888 3137 398 
Q 2709 -91 1959 -91 
Q 1206 -91 779 398 
Q 353 888 353 1747 
Q 353 2609 779 3096 
Q 1206 3584 1959 3584 
z
" transform="scale(0.015625)"/>
        <path id="DejaVuSans-69" d="M 603 3500 
L 1178 3500 
L 1178 0 
L 603 0 
L 603 3500 
z
M 603 4863 
L 1178 4863 
L 1178 4134 
L 603 4134 
L 603 4863 
z
" transform="scale(0.015625)"/>
        <path id="DejaVuSans-66" d="M 2375 4863 
L 2375 4384 
L 1825 4384 
Q 1516 4384 1395 4259 
Q 1275 4134 1275 3809 
L 1275 3500 
L 2222 3500 
L 2222 3053 
L 1275 3053 
L 1275 0 
L 697 0 
L 697 3053 
L 147 3053 
L 147 3500 
L 697 3500 
L 697 3744 
Q 697 4328 969 4595 
Q 1241 4863 1831 4863 
L 2375 4863 
z
" transform="scale(0.015625)"/>
        <path id="DejaVuSans-29" d="M 513 4856 
L 1013 4856 
Q 1481 4119 1714 3412 
Q 1947 2706 1947 2009 
Q 1947 1309 1714 600 
Q 1481 -109 1013 -844 
L 513 -844 
Q 928 -128 1133 580 
Q 1338 1288 1338 2009 
Q 1338 2731 1133 3434 
Q 928 4138 513 4856 
z
" transform="scale(0.015625)"/>
       </defs>
       <use xlink:href="#DejaVuSans-28"/>
       <use xlink:href="#DejaVuSans-6e" transform="translate(39.013672 0)"/>
       <use xlink:href="#DejaVuSans-6f" transform="translate(102.392578 0)"/>
       <use xlink:href="#DejaVuSans-69" transform="translate(163.574219 0)"/>
       <use xlink:href="#DejaVuSans-73" transform="translate(191.357422 0)"/>
       <use xlink:href="#DejaVuSans-65" transform="translate(243.457031 0)"/>
       <use xlink:href="#DejaVuSans-20" transform="translate(304.980469 0)"/>
       <use xlink:href="#DejaVuSans-66" transform="translate(336.767578 0)"/>
       <use xlink:href="#DejaVuSans-6c" transform="translate(371.972656 0)"/>
       <use xlink:href="#DejaVuSans-6f" transform="translate(399.755859 0)"/>
       <use xlink:href="#DejaVuSans-6f" transform="translate(460.9375 0)"/>
       <use xlink:href="#DejaVuSans-72" transform="translate(522.119141 0)"/>
       <use xlink:href="#DejaVuSans-29" transform="translate(563.232422 0)"/>
      </g>
     </g>
    </g>
    <g id="xtick_2">
     <g id="line2d_3">
      <path d="M 215.810745 271.523823 
L 215.810745 33.245095 
" clip-path="url(#p4ba54043cd)" style="fill: none; stroke: #b0b0b0; stroke-opacity: 0.25; stroke-width: 0.8; stroke-linecap: square"/>
     </g>
     <g id="line2d_4">
      <g>
       <use xlink:href="#m3194ed9608" x="215.810745" y="271.523823" style="stroke: #000000; stroke-width: 0.8"/>
      </g>
     </g>
     <g id="text_2">
      <!-- generated -->
      <g transform="translate(189.984182 286.12226) scale(0.1 -0.1)">
       <defs>
        <path id="DejaVuSans-67" d="M 2906 1791 
Q 2906 2416 2648 2759 
Q 2391 3103 1925 3103 
Q 1463 3103 1205 2759 
Q 947 2416 947 1791 
Q 947 1169 1205 825 
Q 1463 481 1925 481 
Q 2391 481 2648 825 
Q 2906 1169 2906 1791 
z
M 3481 434 
Q 3481 -459 3084 -895 
Q 2688 -1331 1869 -1331 
Q 1566 -1331 1297 -1286 
Q 1028 -1241 775 -1147 
L 775 -588 
Q 1028 -725 1275 -790 
Q 1522 -856 1778 -856 
Q 2344 -856 2625 -561 
Q 2906 -266 2906 331 
L 2906 616 
Q 2728 306 2450 153 
Q 2172 0 1784 0 
Q 1141 0 747 490 
Q 353 981 353 1791 
Q 353 2603 747 3093 
Q 1141 3584 1784 3584 
Q 2172 3584 2450 3431 
Q 2728 3278 2906 2969 
L 2906 3500 
L 3481 3500 
L 3481 434 
z
" transform="scale(0.015625)"/>
        <path id="DejaVuSans-74" d="M 1172 4494 
L 1172 3500 
L 2356 3500 
L 2356 3053 
L 1172 3053 
L 1172 1153 
Q 1172 725 1289 603 
Q 1406 481 1766 481 
L 2356 481 
L 2356 0 
L 1766 0 
Q 1100 0 847 248 
Q 594 497 594 1153 
L 594 3053 
L 172 3053 
L 172 3500 
L 594 3500 
L 594 4494 
L 1172 4494 
z
" transform="scale(0.015625)"/>
        <path id="DejaVuSans-64" d="M 2906 2969 
L 2906 4863 
L 3481 4863 
L 3481 0 
L 2906 0 
L 2906 525 
Q 2725 213 2448 61 
Q 2172 -91 1784 -91 
Q 1150 -91 751 415 
Q 353 922 353 1747 
Q 353 2572 751 3078 
Q 1150 3584 1784 3584 
Q 2172 3584 2448 3432 
Q 2725 3281 2906 2969 
z
M 947 1747 
Q 947 1113 1208 752 
Q 1469 391 1925 391 
Q 2381 391 2643 752 
Q 2906 1113 2906 1747 
Q 2906 2381 2643 2742 
Q 2381 3103 1925 3103 
Q 1469 3103 1208 2742 
Q 947 2381 947 1747 
z
" transform="scale(0.015625)"/>
       </defs>
       <use xlink:href="#DejaVuSans-67"/>
       <use xlink:href="#DejaVuSans-65" transform="translate(63.476562 0)"/>
       <use xlink:href="#DejaVuSans-6e" transform="translate(125 0)"/>
       <use xlink:href="#DejaVuSans-65" transform="translate(188.378906 0)"/>
       <use xlink:href="#DejaVuSans-72" transform="translate(249.902344 0)"/>
       <use xlink:href="#DejaVuSans-61" transform="translate(291.015625 0)"/>
       <use xlink:href="#DejaVuSans-74" transform="translate(352.294922 0)"/>
       <use xlink:href="#DejaVuSans-65" transform="translate(391.503906 0)"/>
       <use xlink:href="#DejaVuSans-64" transform="translate(453.027344 0)"/>
      </g>
      <!-- vs real -->
      <g transform="translate(199.184964 297.320073) scale(0.1 -0.1)">
       <use xlink:href="#DejaVuSans-76"/>
       <use xlink:href="#DejaVuSans-73" transform="translate(59.179688 0)"/>
       <use xlink:href="#DejaVuSans-20" transform="translate(111.279297 0)"/>
       <use xlink:href="#DejaVuSans-72" transform="translate(143.066406 0)"/>
       <use xlink:href="#DejaVuSans-65" transform="translate(181.929688 0)"/>
       <use xlink:href="#DejaVuSans-61" transform="translate(243.453125 0)"/>
       <use xlink:href="#DejaVuSans-6c" transform="translate(304.732422 0)"/>
      </g>
     </g>
    </g>
    <g id="xtick_3">
     <g id="line2d_5">
      <path d="M 334.483644 271.523823 
L 334.483644 33.245095 
" clip-path="url(#p4ba54043cd)" style="fill: none; stroke: #b0b0b0; stroke-opacity: 0.25; stroke-width: 0.8; stroke-linecap: square"/>
     </g>
     <g id="line2d_6">
      <g>
       <use xlink:href="#m3194ed9608" x="334.483644" y="271.523823" style="stroke: #000000; stroke-width: 0.8"/>
      </g>
     </g>
     <g id="text_3">
      <!-- control vs real -->
      <g transform="translate(298.939894 286.12226) scale(0.1 -0.1)">
       <defs>
        <path id="DejaVuSans-63" d="M 3122 3366 
L 3122 2828 
Q 2878 2963 2633 3030 
Q 2388 3097 2138 3097 
Q 1578 3097 1268 2742 
Q 959 2388 959 1747 
Q 959 1106 1268 751 
Q 1578 397 2138 397 
Q 2388 397 2633 464 
Q 2878 531 3122 666 
L 3122 134 
Q 2881 22 2623 -34 
Q 2366 -91 2075 -91 
Q 1284 -91 818 406 
Q 353 903 353 1747 
Q 353 2603 823 3093 
Q 1294 3584 2113 3584 
Q 2378 3584 2631 3529 
Q 2884 3475 3122 3366 
z
" transform="scale(0.015625)"/>
       </defs>
       <use xlink:href="#DejaVuSans-63"/>
       <use xlink:href="#DejaVuSans-6f" transform="translate(54.980469 0)"/>
       <use xlink:href="#DejaVuSans-6e" transform="translate(116.162109 0)"/>
       <use xlink:href="#DejaVuSans-74" transform="translate(179.541016 0)"/>
       <use xlink:href="#DejaVuSans-72" transform="translate(218.75 0)"/>
       <use xlink:href="#DejaVuSans-6f" transform="translate(257.613281 0)"/>
       <use xlink:href="#DejaVuSans-6c" transform="translate(318.794922 0)"/>
       <use xlink:href="#DejaVuSans-20" transform="translate(346.578125 0)"/>
       <use xlink:href="#DejaVuSans-76" transform="translate(378.365234 0)"/>
       <use xlink:href="#DejaVuSans-73" transform="translate(437.544922 0)"/>
       <use xlink:href="#DejaVuSans-20" transform="translate(489.644531 0)"/>
       <use xlink:href="#DejaVuSans-72" transform="translate(521.431641 0)"/>
       <use xlink:href="#DejaVuSans-65" transform="translate(560.294922 0)"/>
       <use xlink:href="#DejaVuSans-61" transform="translate(621.818359 0)"/>
       <use xlink:href="#DejaVuSans-6c" transform="translate(683.097656 0)"/>
      </g>
      <!-- (no-change) -->
      <g transform="translate(304.054738 297.320073) scale(0.1 -0.1)">
       <defs>
        <path id="DejaVuSans-2d" d="M 313 2009 
L 1997 2009 
L 1997 1497 
L 313 1497 
L 313 2009 
z
" transform="scale(0.015625)"/>
        <path id="DejaVuSans-68" d="M 3513 2113 
L 3513 0 
L 2938 0 
L 2938 2094 
Q 2938 2591 2744 2837 
Q 2550 3084 2163 3084 
Q 1697 3084 1428 2787 
Q 1159 2491 1159 1978 
L 1159 0 
L 581 0 
L 581 4863 
L 1159 4863 
L 1159 2956 
Q 1366 3272 1645 3428 
Q 1925 3584 2291 3584 
Q 2894 3584 3203 3211 
Q 3513 2838 3513 2113 
z
" transform="scale(0.015625)"/>
       </defs>
       <use xlink:href="#DejaVuSans-28"/>
       <use xlink:href="#DejaVuSans-6e" transform="translate(39.013672 0)"/>
       <use xlink:href="#DejaVuSans-6f" transform="translate(102.392578 0)"/>
       <use xlink:href="#DejaVuSans-2d" transform="translate(165.449219 0)"/>
       <use xlink:href="#DejaVuSans-63" transform="translate(201.533203 0)"/>
       <use xlink:href="#DejaVuSans-68" transform="translate(256.513672 0)"/>
       <use xlink:href="#DejaVuSans-61" transform="translate(319.892578 0)"/>
       <use xlink:href="#DejaVuSans-6e" transform="translate(381.171875 0)"/>
       <use xlink:href="#DejaVuSans-67" transform="translate(444.550781 0)"/>
       <use xlink:href="#DejaVuSans-65" transform="translate(508.027344 0)"/>
       <use xlink:href="#DejaVuSans-29" transform="translate(569.550781 0)"/>
      </g>
     </g>
    </g>
   </g>
   <g id="matplotlib.axis_2">
    <g id="ytick_1">
     <g id="line2d_7">
      <path d="M 39.58149 260.692971 
L 392.04 260.692971 
" clip-path="url(#p4ba54043cd)" style="fill: none; stroke: #b0b0b0; stroke-opacity: 0.25; stroke-width: 0.8; stroke-linecap: square"/>
     </g>
     <g id="line2d_8">
      <defs>
       <path id="m0297278471" d="M 0 0 
L -3.5 0 
" style="stroke: #000000; stroke-width: 0.8"/>
      </defs>
      <g>
       <use xlink:href="#m0297278471" x="39.58149" y="260.692971" style="stroke: #000000; stroke-width: 0.8"/>
      </g>
     </g>
     <g id="text_4">
      <!-- 0.0 -->
      <g transform="translate(16.678365 264.49219) scale(0.1 -0.1)">
       <defs>
        <path id="DejaVuSans-30" d="M 2034 4250 
Q 1547 4250 1301 3770 
Q 1056 3291 1056 2328 
Q 1056 1369 1301 889 
Q 1547 409 2034 409 
Q 2525 409 2770 889 
Q 3016 1369 3016 2328 
Q 3016 3291 2770 3770 
Q 2525 4250 2034 4250 
z
M 2034 4750 
Q 2819 4750 3233 4129 
Q 3647 3509 3647 2328 
Q 3647 1150 3233 529 
Q 2819 -91 2034 -91 
Q 1250 -91 836 529 
Q 422 1150 422 2328 
Q 422 3509 836 4129 
Q 1250 4750 2034 4750 
z
" transform="scale(0.015625)"/>
        <path id="DejaVuSans-2e" d="M 684 794 
L 1344 794 
L 1344 0 
L 684 0 
L 684 794 
z
" transform="scale(0.015625)"/>
       </defs>
       <use xlink:href="#DejaVuSans-30"/>
       <use xlink:href="#DejaVuSans-2e" transform="translate(63.623047 0)"/>
       <use xlink:href="#DejaVuSans-30" transform="translate(95.410156 0)"/>
      </g>
     </g>
    </g>
    <g id="ytick_2">
     <g id="line2d_9">
      <path d="M 39.58149 229.691811 
L 392.04 229.691811 
" clip-path="url(#p4ba54043cd)" style="fill: none; stroke: #b0b0b0; stroke-opacity: 0.25; stroke-width: 0.8; stroke-linecap: square"/>
     </g>
     <g id="line2d_10">
      <g>
       <use xlink:href="#m0297278471" x="39.58149" y="229.691811" style="stroke: #000000; stroke-width: 0.8"/>
      </g>
     </g>
     <g id="text_5">
      <!-- 0.5 -->
      <g transform="translate(16.678365 233.49103) scale(0.1 -0.1)">
       <defs>
        <path id="DejaVuSans-35" d="M 691 4666 
L 3169 4666 
L 3169 4134 
L 1269 4134 
L 1269 2991 
Q 1406 3038 1543 3061 
Q 1681 3084 1819 3084 
Q 2600 3084 3056 2656 
Q 3513 2228 3513 1497 
Q 3513 744 3044 326 
Q 2575 -91 1722 -91 
Q 1428 -91 1123 -41 
Q 819 9 494 109 
L 494 744 
Q 775 591 1075 516 
Q 1375 441 1709 441 
Q 2250 441 2565 725 
Q 2881 1009 2881 1497 
Q 2881 1984 2565 2268 
Q 2250 2553 1709 2553 
Q 1456 2553 1204 2497 
Q 953 2441 691 2322 
L 691 4666 
z
" transform="scale(0.015625)"/>
       </defs>
       <use xlink:href="#DejaVuSans-30"/>
       <use xlink:href="#DejaVuSans-2e" transform="translate(63.623047 0)"/>
       <use xlink:href="#DejaVuSans-35" transform="translate(95.410156 0)"/>
      </g>
     </g>
    </g>
    <g id="ytick_3">
     <g id="line2d_11">
      <path d="M 39.58149 198.690651 
L 392.04 198.690651 
" clip-path="url(#p4ba54043cd)" style="fill: none; stroke: #b0b0b0; stroke-opacity: 0.25; stroke-width: 0.8; stroke-linecap: square"/>
     </g>
     <g id="line2d_12">
      <g>
       <use xlink:href="#m0297278471" x="39.58149" y="198.690651" style="stroke: #000000; stroke-width: 0.8"/>
      </g>
     </g>
     <g id="text_6">
      <!-- 1.0 -->
      <g transform="translate(16.678365 202.48987) scale(0.1 -0.1)">
       <defs>
        <path id="DejaVuSans-31" d="M 794 531 
L 1825 531 
L 1825 4091 
L 703 3866 
L 703 4441 
L 1819 4666 
L 2450 4666 
L 2450 531 
L 3481 531 
L 3481 0 
L 794 0 
L 794 531 
z
" transform="scale(0.015625)"/>
       </defs>
       <use xlink:href="#DejaVuSans-31"/>
       <use xlink:href="#DejaVuSans-2e" transform="translate(63.623047 0)"/>
       <use xlink:href="#DejaVuSans-30" transform="translate(95.410156 0)"/>
      </g>
     </g>
    </g>
    <g id="ytick_4">
     <g id="line2d_13">
      <path d="M 39.58149 167.689491 
L 392.04 167.689491 
" clip-path="url(#p4ba54043cd)" style="fill: none; stroke: #b0b0b0; stroke-opacity: 0.25; stroke-width: 0.8; stroke-linecap: square"/>
     </g>
     <g id="line2d_14">
      <g>
       <use xlink:href="#m0297278471" x="39.58149" y="167.689491" style="stroke: #000000; stroke-width: 0.8"/>
      </g>
     </g>
     <g id="text_7">
      <!-- 1.5 -->
      <g transform="translate(16.678365 171.488709) scale(0.1 -0.1)">
       <use xlink:href="#DejaVuSans-31"/>
       <use xlink:href="#DejaVuSans-2e" transform="translate(63.623047 0)"/>
       <use xlink:href="#DejaVuSans-35" transform="translate(95.410156 0)"/>
      </g>
     </g>
    </g>
    <g id="ytick_5">
     <g id="line2d_15">
      <path d="M 39.58149 136.68833 
L 392.04 136.68833 
" clip-path="url(#p4ba54043cd)" style="fill: none; stroke: #b0b0b0; stroke-opacity: 0.25; stroke-width: 0.8; stroke-linecap: square"/>
     </g>
     <g id="line2d_16">
      <g>
       <use xlink:href="#m0297278471" x="39.58149" y="136.68833" style="stroke: #000000; stroke-width: 0.8"/>
      </g>
     </g>
     <g id="text_8">
      <!-- 2.0 -->
      <g transform="translate(16.678365 140.487549) scale(0.1 -0.1)">
       <defs>
        <path id="DejaVuSans-32" d="M 1228 531 
L 3431 531 
L 3431 0 
L 469 0 
L 469 531 
Q 828 903 1448 1529 
Q 2069 2156 2228 2338 
Q 2531 2678 2651 2914 
Q 2772 3150 2772 3378 
Q 2772 3750 2511 3984 
Q 2250 4219 1831 4219 
Q 1534 4219 1204 4116 
Q 875 4013 500 3803 
L 500 4441 
Q 881 4594 1212 4672 
Q 1544 4750 1819 4750 
Q 2544 4750 2975 4387 
Q 3406 4025 3406 3419 
Q 3406 3131 3298 2873 
Q 3191 2616 2906 2266 
Q 2828 2175 2409 1742 
Q 1991 1309 1228 531 
z
" transform="scale(0.015625)"/>
       </defs>
       <use xlink:href="#DejaVuSans-32"/>
       <use xlink:href="#DejaVuSans-2e" transform="translate(63.623047 0)"/>
       <use xlink:href="#DejaVuSans-30" transform="translate(95.410156 0)"/>
      </g>
     </g>
    </g>
    <g id="ytick_6">
     <g id="line2d_17">
      <path d="M 39.58149 105.68717 
L 392.04 105.68717 
" clip-path="url(#p4ba54043cd)" style="fill: none; stroke: #b0b0b0; stroke-opacity: 0.25; stroke-width: 0.8; stroke-linecap: square"/>
     </g>
     <g id="line2d_18">
      <g>
       <use xlink:href="#m0297278471" x="39.58149" y="105.68717" style="stroke: #000000; stroke-width: 0.8"/>
      </g>
     </g>
     <g id="text_9">
      <!-- 2.5 -->
      <g transform="translate(16.678365 109.486389) scale(0.1 -0.1)">
       <use xlink:href="#DejaVuSans-32"/>
       <use xlink:href="#DejaVuSans-2e" transform="translate(63.623047 0)"/>
       <use xlink:href="#DejaVuSans-35" transform="translate(95.410156 0)"/>
      </g>
     </g>
    </g>
    <g id="ytick_7">
     <g id="line2d_19">
      <path d="M 39.58149 74.68601 
L 392.04 74.68601 
" clip-path="url(#p4ba54043cd)" style="fill: none; stroke: #b0b0b0; stroke-opacity: 0.25; stroke-width: 0.8; stroke-linecap: square"/>
     </g>
     <g id="line2d_20">
      <g>
       <use xlink:href="#m0297278471" x="39.58149" y="74.68601" style="stroke: #000000; stroke-width: 0.8"/>
      </g>
     </g>
     <g id="text_10">
      <!-- 3.0 -->
      <g transform="translate(16.678365 78.485229) scale(0.1 -0.1)">
       <defs>
        <path id="DejaVuSans-33" d="M 2597 2516 
Q 3050 2419 3304 2112 
Q 3559 1806 3559 1356 
Q 3559 666 3084 287 
Q 2609 -91 1734 -91 
Q 1441 -91 1130 -33 
Q 819 25 488 141 
L 488 750 
Q 750 597 1062 519 
Q 1375 441 1716 441 
Q 2309 441 2620 675 
Q 2931 909 2931 1356 
Q 2931 1769 2642 2001 
Q 2353 2234 1838 2234 
L 1294 2234 
L 1294 2753 
L 1863 2753 
Q 2328 2753 2575 2939 
Q 2822 3125 2822 3475 
Q 2822 3834 2567 4026 
Q 2313 4219 1838 4219 
Q 1578 4219 1281 4162 
Q 984 4106 628 3988 
L 628 4550 
Q 988 4650 1302 4700 
Q 1616 4750 1894 4750 
Q 2613 4750 3031 4423 
Q 3450 4097 3450 3541 
Q 3450 3153 3228 2886 
Q 3006 2619 2597 2516 
z
" transform="scale(0.015625)"/>
       </defs>
       <use xlink:href="#DejaVuSans-33"/>
       <use xlink:href="#DejaVuSans-2e" transform="translate(63.623047 0)"/>
       <use xlink:href="#DejaVuSans-30" transform="translate(95.410156 0)"/>
      </g>
     </g>
    </g>
    <g id="ytick_8">
     <g id="line2d_21">
      <path d="M 39.58149 43.68485 
L 392.04 43.68485 
" clip-path="url(#p4ba54043cd)" style="fill: none; stroke: #b0b0b0; stroke-opacity: 0.25; stroke-width: 0.8; stroke-linecap: square"/>
     </g>
     <g id="line2d_22">
      <g>
       <use xlink:href="#m0297278471" x="39.58149" y="43.68485" style="stroke: #000000; stroke-width: 0.8"/>
      </g>
     </g>
     <g id="text_11">
      <!-- 3.5 -->
      <g transform="translate(16.678365 47.484069) scale(0.1 -0.1)">
       <use xlink:href="#DejaVuSans-33"/>
       <use xlink:href="#DejaVuSans-2e" transform="translate(63.623047 0)"/>
       <use xlink:href="#DejaVuSans-35" transform="translate(95.410156 0)"/>
      </g>
     </g>
    </g>
    <g id="text_12">
     <!-- log1p E-distance -->
     <g transform="translate(10.598677 194.101646) rotate(-90) scale(0.1 -0.1)">
      <defs>
       <path id="DejaVuSans-70" d="M 1159 525 
L 1159 -1331 
L 581 -1331 
L 581 3500 
L 1159 3500 
L 1159 2969 
Q 1341 3281 1617 3432 
Q 1894 3584 2278 3584 
Q 2916 3584 3314 3078 
Q 3713 2572 3713 1747 
Q 3713 922 3314 415 
Q 2916 -91 2278 -91 
Q 1894 -91 1617 61 
Q 1341 213 1159 525 
z
M 3116 1747 
Q 3116 2381 2855 2742 
Q 2594 3103 2138 3103 
Q 1681 3103 1420 2742 
Q 1159 2381 1159 1747 
Q 1159 1113 1420 752 
Q 1681 391 2138 391 
Q 2594 391 2855 752 
Q 3116 1113 3116 1747 
z
" transform="scale(0.015625)"/>
       <path id="DejaVuSans-45" d="M 628 4666 
L 3578 4666 
L 3578 4134 
L 1259 4134 
L 1259 2753 
L 3481 2753 
L 3481 2222 
L 1259 2222 
L 1259 531 
L 3634 531 
L 3634 0 
L 628 0 
L 628 4666 
z
" transform="scale(0.015625)"/>
      </defs>
      <use xlink:href="#DejaVuSans-6c"/>
      <use xlink:href="#DejaVuSans-6f" transform="translate(27.783203 0)"/>
      <use xlink:href="#DejaVuSans-67" transform="translate(88.964844 0)"/>
      <use xlink:href="#DejaVuSans-31" transform="translate(152.441406 0)"/>
      <use xlink:href="#DejaVuSans-70" transform="translate(216.064453 0)"/>
      <use xlink:href="#DejaVuSans-20" transform="translate(279.541016 0)"/>
      <use xlink:href="#DejaVuSans-45" transform="translate(311.328125 0)"/>
      <use xlink:href="#DejaVuSans-2d" transform="translate(374.511719 0)"/>
      <use xlink:href="#DejaVuSans-64" transform="translate(410.595703 0)"/>
      <use xlink:href="#DejaVuSans-69" transform="translate(474.072266 0)"/>
      <use xlink:href="#DejaVuSans-73" transform="translate(501.855469 0)"/>
      <use xlink:href="#DejaVuSans-74" transform="translate(553.955078 0)"/>
      <use xlink:href="#DejaVuSans-61" transform="translate(593.164062 0)"/>
      <use xlink:href="#DejaVuSans-6e" transform="translate(654.443359 0)"/>
      <use xlink:href="#DejaVuSans-63" transform="translate(717.822266 0)"/>
      <use xlink:href="#DejaVuSans-65" transform="translate(772.802734 0)"/>
     </g>
    </g>
   </g>
   <g id="LineCollection_1">
    <path d="M 76.370089 260.692971 
L 117.905603 260.692971 
" clip-path="url(#p4ba54043cd)" style="fill: none; stroke: #333333; stroke-width: 1.5"/>
    <path d="M 195.042988 210.701905 
L 236.578502 210.701905 
" clip-path="url(#p4ba54043cd)" style="fill: none; stroke: #333333; stroke-width: 1.5"/>
    <path d="M 313.715887 200.03822 
L 355.251401 200.03822 
" clip-path="url(#p4ba54043cd)" style="fill: none; stroke: #333333; stroke-width: 1.5"/>
   </g>
   <g id="patch_3">
    <path d="M 39.58149 271.523823 
L 39.58149 33.245095 
" style="fill: none; stroke: #000000; stroke-width: 0.8; stroke-linejoin: miter; stroke-linecap: square"/>
   </g>
   <g id="patch_4">
    <path d="M 39.58149 271.523823 
L 392.04 271.523823 
" style="fill: none; stroke: #000000; stroke-width: 0.8; stroke-linejoin: miter; stroke-linecap: square"/>
   </g>
   <g id="text_13">
    <!-- A  Population match (held-out conditions) -->
    <g transform="translate(39.58149 27.245095) scale(0.1 -0.1)">
     <defs>
      <path id="DejaVuSans-Bold-41" d="M 3419 850 
L 1538 850 
L 1241 0 
L 31 0 
L 1759 4666 
L 3194 4666 
L 4922 0 
L 3713 0 
L 3419 850 
z
M 1838 1716 
L 3116 1716 
L 2478 3572 
L 1838 1716 
z
" transform="scale(0.015625)"/>
      <path id="DejaVuSans-Bold-20" transform="scale(0.015625)"/>
      <path id="DejaVuSans-Bold-50" d="M 588 4666 
L 2584 4666 
Q 3475 4666 3951 4270 
Q 4428 3875 4428 3144 
Q 4428 2409 3951 2014 
Q 3475 1619 2584 1619 
L 1791 1619 
L 1791 0 
L 588 0 
L 588 4666 
z
M 1791 3794 
L 1791 2491 
L 2456 2491 
Q 2806 2491 2997 2661 
Q 3188 2831 3188 3144 
Q 3188 3456 2997 3625 
Q 2806 3794 2456 3794 
L 1791 3794 
z
" transform="scale(0.015625)"/>
      <path id="DejaVuSans-Bold-6f" d="M 2203 2784 
Q 1831 2784 1636 2517 
Q 1441 2250 1441 1747 
Q 1441 1244 1636 976 
Q 1831 709 2203 709 
Q 2569 709 2762 976 
Q 2956 1244 2956 1747 
Q 2956 2250 2762 2517 
Q 2569 2784 2203 2784 
z
M 2203 3584 
Q 3106 3584 3614 3096 
Q 4122 2609 4122 1747 
Q 4122 884 3614 396 
Q 3106 -91 2203 -91 
Q 1297 -91 786 396 
Q 275 884 275 1747 
Q 275 2609 786 3096 
Q 1297 3584 2203 3584 
z
" transform="scale(0.015625)"/>
      <path id="DejaVuSans-Bold-70" d="M 1656 506 
L 1656 -1331 
L 538 -1331 
L 538 3500 
L 1656 3500 
L 1656 2988 
Q 1888 3294 2169 3439 
Q 2450 3584 2816 3584 
Q 3463 3584 3878 3070 
Q 4294 2556 4294 1747 
Q 4294 938 3878 423 
Q 3463 -91 2816 -91 
Q 2450 -91 2169 54 
Q 1888 200 1656 506 
z
M 2400 2772 
Q 2041 2772 1848 2508 
Q 1656 2244 1656 1747 
Q 1656 1250 1848 986 
Q 2041 722 2400 722 
Q 2759 722 2948 984 
Q 3138 1247 3138 1747 
Q 3138 2247 2948 2509 
Q 2759 2772 2400 2772 
z
" transform="scale(0.015625)"/>
      <path id="DejaVuSans-Bold-75" d="M 500 1363 
L 500 3500 
L 1625 3500 
L 1625 3150 
Q 1625 2866 1622 2436 
Q 1619 2006 1619 1863 
Q 1619 1441 1641 1255 
Q 1663 1069 1716 984 
Q 1784 875 1895 815 
Q 2006 756 2150 756 
Q 2500 756 2700 1025 
Q 2900 1294 2900 1772 
L 2900 3500 
L 4019 3500 
L 4019 0 
L 2900 0 
L 2900 506 
Q 2647 200 2364 54 
Q 2081 -91 1741 -91 
Q 1134 -91 817 281 
Q 500 653 500 1363 
z
" transform="scale(0.015625)"/>
      <path id="DejaVuSans-Bold-6c" d="M 538 4863 
L 1656 4863 
L 1656 0 
L 538 0 
L 538 4863 
z
" transform="scale(0.015625)"/>
      <path id="DejaVuSans-Bold-61" d="M 2106 1575 
Q 1756 1575 1579 1456 
Q 1403 1338 1403 1106 
Q 1403 894 1545 773 
Q 1688 653 1941 653 
Q 2256 653 2472 879 
Q 2688 1106 2688 1447 
L 2688 1575 
L 2106 1575 
z
M 3816 1997 
L 3816 0 
L 2688 0 
L 2688 519 
Q 2463 200 2181 54 
Q 1900 -91 1497 -91 
Q 953 -91 614 226 
Q 275 544 275 1050 
Q 275 1666 698 1953 
Q 1122 2241 2028 2241 
L 2688 2241 
L 2688 2328 
Q 2688 2594 2478 2717 
Q 2269 2841 1825 2841 
Q 1466 2841 1156 2769 
Q 847 2697 581 2553 
L 581 3406 
Q 941 3494 1303 3539 
Q 1666 3584 2028 3584 
Q 2975 3584 3395 3211 
Q 3816 2838 3816 1997 
z
" transform="scale(0.015625)"/>
      <path id="DejaVuSans-Bold-74" d="M 1759 4494 
L 1759 3500 
L 2913 3500 
L 2913 2700 
L 1759 2700 
L 1759 1216 
Q 1759 972 1856 886 
Q 1953 800 2241 800 
L 2816 800 
L 2816 0 
L 1856 0 
Q 1194 0 917 276 
Q 641 553 641 1216 
L 641 2700 
L 84 2700 
L 84 3500 
L 641 3500 
L 641 4494 
L 1759 4494 
z
" transform="scale(0.015625)"/>
      <path id="DejaVuSans-Bold-69" d="M 538 3500 
L 1656 3500 
L 1656 0 
L 538 0 
L 538 3500 
z
M 538 4863 
L 1656 4863 
L 1656 3950 
L 538 3950 
L 538 4863 
z
" transform="scale(0.015625)"/>
      <path id="DejaVuSans-Bold-6e" d="M 4056 2131 
L 4056 0 
L 2931 0 
L 2931 347 
L 2931 1631 
Q 2931 2084 2911 2256 
Q 2891 2428 2841 2509 
Q 2775 2619 2662 2680 
Q 2550 2741 2406 2741 
Q 2056 2741 1856 2470 
Q 1656 2200 1656 1722 
L 1656 0 
L 538 0 
L 538 3500 
L 1656 3500 
L 1656 2988 
Q 1909 3294 2193 3439 
Q 2478 3584 2822 3584 
Q 3428 3584 3742 3212 
Q 4056 2841 4056 2131 
z
" transform="scale(0.015625)"/>
      <path id="DejaVuSans-Bold-6d" d="M 3781 2919 
Q 3994 3244 4286 3414 
Q 4578 3584 4928 3584 
Q 5531 3584 5847 3212 
Q 6163 2841 6163 2131 
L 6163 0 
L 5038 0 
L 5038 1825 
Q 5041 1866 5042 1909 
Q 5044 1953 5044 2034 
Q 5044 2406 4934 2573 
Q 4825 2741 4581 2741 
Q 4263 2741 4089 2478 
Q 3916 2216 3909 1719 
L 3909 0 
L 2784 0 
L 2784 1825 
Q 2784 2406 2684 2573 
Q 2584 2741 2328 2741 
Q 2006 2741 1831 2477 
Q 1656 2213 1656 1722 
L 1656 0 
L 531 0 
L 531 3500 
L 1656 3500 
L 1656 2988 
Q 1863 3284 2130 3434 
Q 2397 3584 2719 3584 
Q 3081 3584 3359 3409 
Q 3638 3234 3781 2919 
z
" transform="scale(0.015625)"/>
      <path id="DejaVuSans-Bold-63" d="M 3366 3391 
L 3366 2478 
Q 3138 2634 2908 2709 
Q 2678 2784 2431 2784 
Q 1963 2784 1702 2511 
Q 1441 2238 1441 1747 
Q 1441 1256 1702 982 
Q 1963 709 2431 709 
Q 2694 709 2930 787 
Q 3166 866 3366 1019 
L 3366 103 
Q 3103 6 2833 -42 
Q 2563 -91 2291 -91 
Q 1344 -91 809 395 
Q 275 881 275 1747 
Q 275 2613 809 3098 
Q 1344 3584 2291 3584 
Q 2566 3584 2833 3536 
Q 3100 3488 3366 3391 
z
" transform="scale(0.015625)"/>
      <path id="DejaVuSans-Bold-68" d="M 4056 2131 
L 4056 0 
L 2931 0 
L 2931 347 
L 2931 1625 
Q 2931 2084 2911 2256 
Q 2891 2428 2841 2509 
Q 2775 2619 2662 2680 
Q 2550 2741 2406 2741 
Q 2056 2741 1856 2470 
Q 1656 2200 1656 1722 
L 1656 0 
L 538 0 
L 538 4863 
L 1656 4863 
L 1656 2988 
Q 1909 3294 2193 3439 
Q 2478 3584 2822 3584 
Q 3428 3584 3742 3212 
Q 4056 2841 4056 2131 
z
" transform="scale(0.015625)"/>
      <path id="DejaVuSans-Bold-28" d="M 2413 -844 
L 1484 -844 
Q 1006 -72 778 623 
Q 550 1319 550 2003 
Q 550 2688 779 3389 
Q 1009 4091 1484 4856 
L 2413 4856 
Q 2013 4116 1813 3408 
Q 1613 2700 1613 2009 
Q 1613 1319 1811 609 
Q 2009 -100 2413 -844 
z
" transform="scale(0.015625)"/>
      <path id="DejaVuSans-Bold-65" d="M 4031 1759 
L 4031 1441 
L 1416 1441 
Q 1456 1047 1700 850 
Q 1944 653 2381 653 
Q 2734 653 3104 758 
Q 3475 863 3866 1075 
L 3866 213 
Q 3469 63 3072 -14 
Q 2675 -91 2278 -91 
Q 1328 -91 801 392 
Q 275 875 275 1747 
Q 275 2603 792 3093 
Q 1309 3584 2216 3584 
Q 3041 3584 3536 3087 
Q 4031 2591 4031 1759 
z
M 2881 2131 
Q 2881 2450 2695 2645 
Q 2509 2841 2209 2841 
Q 1884 2841 1681 2658 
Q 1478 2475 1428 2131 
L 2881 2131 
z
" transform="scale(0.015625)"/>
      <path id="DejaVuSans-Bold-64" d="M 2919 2988 
L 2919 4863 
L 4044 4863 
L 4044 0 
L 2919 0 
L 2919 506 
Q 2688 197 2409 53 
Q 2131 -91 1766 -91 
Q 1119 -91 703 423 
Q 288 938 288 1747 
Q 288 2556 703 3070 
Q 1119 3584 1766 3584 
Q 2128 3584 2408 3439 
Q 2688 3294 2919 2988 
z
M 2181 722 
Q 2541 722 2730 984 
Q 2919 1247 2919 1747 
Q 2919 2247 2730 2509 
Q 2541 2772 2181 2772 
Q 1825 2772 1636 2509 
Q 1447 2247 1447 1747 
Q 1447 1247 1636 984 
Q 1825 722 2181 722 
z
" transform="scale(0.015625)"/>
      <path id="DejaVuSans-Bold-2d" d="M 347 2297 
L 2309 2297 
L 2309 1388 
L 347 1388 
L 347 2297 
z
" transform="scale(0.015625)"/>
      <path id="DejaVuSans-Bold-73" d="M 3272 3391 
L 3272 2541 
Q 2913 2691 2578 2766 
Q 2244 2841 1947 2841 
Q 1628 2841 1473 2761 
Q 1319 2681 1319 2516 
Q 1319 2381 1436 2309 
Q 1553 2238 1856 2203 
L 2053 2175 
Q 2913 2066 3209 1816 
Q 3506 1566 3506 1031 
Q 3506 472 3093 190 
Q 2681 -91 1863 -91 
Q 1516 -91 1145 -36 
Q 775 19 384 128 
L 384 978 
Q 719 816 1070 734 
Q 1422 653 1784 653 
Q 2113 653 2278 743 
Q 2444 834 2444 1013 
Q 2444 1163 2330 1236 
Q 2216 1309 1875 1350 
L 1678 1375 
Q 931 1469 631 1722 
Q 331 1975 331 2491 
Q 331 3047 712 3315 
Q 1094 3584 1881 3584 
Q 2191 3584 2531 3537 
Q 2872 3491 3272 3391 
z
" transform="scale(0.015625)"/>
      <path id="DejaVuSans-Bold-29" d="M 513 -844 
Q 913 -100 1113 609 
Q 1313 1319 1313 2009 
Q 1313 2700 1113 3408 
Q 913 4116 513 4856 
L 1441 4856 
Q 1916 4091 2145 3389 
Q 2375 2688 2375 2003 
Q 2375 1319 2147 623 
Q 1919 -72 1441 -844 
L 513 -844 
z
" transform="scale(0.015625)"/>
     </defs>
     <use xlink:href="#DejaVuSans-Bold-41"/>
     <use xlink:href="#DejaVuSans-Bold-20" transform="translate(77.392578 0)"/>
     <use xlink:href="#DejaVuSans-Bold-20" transform="translate(112.207031 0)"/>
     <use xlink:href="#DejaVuSans-Bold-50" transform="translate(147.021484 0)"/>
     <use xlink:href="#DejaVuSans-Bold-6f" transform="translate(220.3125 0)"/>
     <use xlink:href="#DejaVuSans-Bold-70" transform="translate(289.013672 0)"/>
     <use xlink:href="#DejaVuSans-Bold-75" transform="translate(360.595703 0)"/>
     <use xlink:href="#DejaVuSans-Bold-6c" transform="translate(431.787109 0)"/>
     <use xlink:href="#DejaVuSans-Bold-61" transform="translate(466.064453 0)"/>
     <use xlink:href="#DejaVuSans-Bold-74" transform="translate(533.544922 0)"/>
     <use xlink:href="#DejaVuSans-Bold-69" transform="translate(581.347656 0)"/>
     <use xlink:href="#DejaVuSans-Bold-6f" transform="translate(615.625 0)"/>
     <use xlink:href="#DejaVuSans-Bold-6e" transform="translate(684.326172 0)"/>
     <use xlink:href="#DejaVuSans-Bold-20" transform="translate(755.517578 0)"/>
     <use xlink:href="#DejaVuSans-Bold-6d" transform="translate(790.332031 0)"/>
     <use xlink:href="#DejaVuSans-Bold-61" transform="translate(894.53125 0)"/>
     <use xlink:href="#DejaVuSans-Bold-74" transform="translate(962.011719 0)"/>
     <use xlink:href="#DejaVuSans-Bold-63" transform="translate(1009.814453 0)"/>
     <use xlink:href="#DejaVuSans-Bold-68" transform="translate(1069.091797 0)"/>
     <use xlink:href="#DejaVuSans-Bold-20" transform="translate(1140.283203 0)"/>
     <use xlink:href="#DejaVuSans-Bold-28" transform="translate(1175.097656 0)"/>
     <use xlink:href="#DejaVuSans-Bold-68" transform="translate(1220.800781 0)"/>
     <use xlink:href="#DejaVuSans-Bold-65" transform="translate(1291.992188 0)"/>
     <use xlink:href="#DejaVuSans-Bold-6c" transform="translate(1359.814453 0)"/>
     <use xlink:href="#DejaVuSans-Bold-64" transform="translate(1394.091797 0)"/>
     <use xlink:href="#DejaVuSans-Bold-2d" transform="translate(1465.673828 0)"/>
     <use xlink:href="#DejaVuSans-Bold-6f" transform="translate(1507.177734 0)"/>
     <use xlink:href="#DejaVuSans-Bold-75" transform="translate(1575.878906 0)"/>
     <use xlink:href="#DejaVuSans-Bold-74" transform="translate(1647.070312 0)"/>
     <use xlink:href="#DejaVuSans-Bold-20" transform="translate(1694.873047 0)"/>
     <use xlink:href="#DejaVuSans-Bold-63" transform="translate(1729.6875 0)"/>
     <use xlink:href="#DejaVuSans-Bold-6f" transform="translate(1788.964844 0)"/>
     <use xlink:href="#DejaVuSans-Bold-6e" transform="translate(1857.666016 0)"/>
     <use xlink:href="#DejaVuSans-Bold-64" transform="translate(1928.857422 0)"/>
     <use xlink:href="#DejaVuSans-Bold-69" transform="translate(2000.439453 0)"/>
     <use xlink:href="#DejaVuSans-Bold-74" transform="translate(2034.716797 0)"/>
     <use xlink:href="#DejaVuSans-Bold-69" transform="translate(2082.519531 0)"/>
     <use xlink:href="#DejaVuSans-Bold-6f" transform="translate(2116.796875 0)"/>
     <use xlink:href="#DejaVuSans-Bold-6e" transform="translate(2185.498047 0)"/>
     <use xlink:href="#DejaVuSans-Bold-73" transform="translate(2256.689453 0)"/>
     <use xlink:href="#DejaVuSans-Bold-29" transform="translate(2316.210938 0)"/>
    </g>
   </g>
  </g>
  <g id="axes_2">
   <g id="patch_5">
    <path d="M 436.54125 271.523823 
L 788.99976 271.523823 
L 788.99976 33.245095 
L 436.54125 33.245095 
z
" style="fill: #ffffff"/>
   </g>
   <g id="line2d_23">
    <path d="M 436.54125 260.692971 
L 788.99976 260.692971 
" clip-path="url(#pd67906da77)" style="fill: none; stroke-dasharray: 2.96,1.28; stroke-dashoffset: 0; stroke: #888888; stroke-width: 0.8"/>
   </g>
   <g id="FillBetweenPolyCollection_4">
    <path d="M 523.596662 242.673723 
L 513.463862 242.673723 
L 513.075244 240.762255 
L 512.716369 238.850787 
L 512.387049 236.939318 
L 512.082596 235.02785 
L 511.793599 233.116382 
L 511.506089 231.204914 
L 511.202133 229.293445 
L 510.860818 227.381977 
L 510.459566 225.470509 
L 509.975662 223.559041 
L 509.387856 221.647573 
L 508.677883 219.736104 
L 507.831737 217.824636 
L 506.840567 215.913168 
L 505.701095 214.0017 
L 504.415517 212.090231 
L 502.990908 210.178763 
L 501.438227 208.267295 
L 499.771059 206.355827 
L 498.004276 204.444359 
L 496.152817 202.53289 
L 494.230744 200.621422 
L 492.250701 198.709954 
L 490.22382 196.798486 
L 488.160037 194.887017 
L 486.068714 192.975549 
L 483.959381 191.064081 
L 481.842426 189.152613 
L 479.729517 187.241145 
L 477.633662 185.329676 
L 475.568828 183.418208 
L 473.549184 181.50674 
L 471.588087 179.595272 
L 469.697032 177.683803 
L 467.884777 175.772335 
L 466.15685 173.860867 
L 464.515602 171.949399 
L 462.960811 170.037931 
L 461.490818 168.126462 
L 460.103991 166.214994 
L 458.800311 164.303526 
L 457.582792 162.392058 
L 456.458514 160.480589 
L 455.439074 158.569121 
L 454.540383 156.657653 
L 453.781826 154.746185 
L 453.184892 152.834717 
L 452.771482 150.923248 
L 452.562091 149.01178 
L 452.574106 147.100312 
L 452.82038 145.188844 
L 453.308224 143.277375 
L 454.038872 141.365907 
L 455.007408 139.454439 
L 456.203112 137.542971 
L 457.610129 135.631503 
L 459.208377 133.720034 
L 460.97457 131.808566 
L 462.883302 129.897098 
L 464.908081 127.98563 
L 467.022283 126.074161 
L 469.199966 124.162693 
L 471.416497 122.251225 
L 473.648986 120.339757 
L 475.876488 118.428289 
L 478.079985 116.51682 
L 480.242166 114.605352 
L 482.347038 112.693884 
L 484.379451 110.782416 
L 486.324594 108.870947 
L 488.167593 106.959479 
L 489.893259 105.048011 
L 491.486103 103.136543 
L 492.930632 101.225075 
L 494.211953 99.313606 
L 495.316649 97.402138 
L 496.233849 95.49067 
L 496.95641 93.579202 
L 497.482063 91.667733 
L 497.814436 89.756265 
L 497.9638 87.844797 
L 497.947487 85.933329 
L 497.789877 84.021861 
L 497.521949 82.110392 
L 497.180368 80.198924 
L 496.806146 78.287456 
L 496.442931 76.375988 
L 496.134988 74.464519 
L 495.924989 72.553051 
L 495.851736 70.641583 
L 495.947961 68.730115 
L 496.23837 66.818647 
L 496.738092 64.907178 
L 497.451685 62.99571 
L 498.372802 61.084242 
L 499.4846 59.172774 
L 500.760867 57.261305 
L 502.167797 55.349837 
L 503.666282 53.438369 
L 533.394241 53.438369 
L 533.394241 53.438369 
L 534.892726 55.349837 
L 536.299657 57.261305 
L 537.575923 59.172774 
L 538.687721 61.084242 
L 539.608839 62.99571 
L 540.322431 64.907178 
L 540.822154 66.818647 
L 541.112563 68.730115 
L 541.208787 70.641583 
L 541.135534 72.553051 
L 540.925535 74.464519 
L 540.617592 76.375988 
L 540.254377 78.287456 
L 539.880156 80.198924 
L 539.538574 82.110392 
L 539.270646 84.021861 
L 539.113037 85.933329 
L 539.096723 87.844797 
L 539.246088 89.756265 
L 539.57846 91.667733 
L 540.104114 93.579202 
L 540.826674 95.49067 
L 541.743875 97.402138 
L 542.84857 99.313606 
L 544.129891 101.225075 
L 545.57442 103.136543 
L 547.167265 105.048011 
L 548.892931 106.959479 
L 550.735929 108.870947 
L 552.681073 110.782416 
L 554.713485 112.693884 
L 556.818358 114.605352 
L 558.980539 116.51682 
L 561.184036 118.428289 
L 563.411537 120.339757 
L 565.644026 122.251225 
L 567.860557 124.162693 
L 570.03824 126.074161 
L 572.152443 127.98563 
L 574.177221 129.897098 
L 576.085953 131.808566 
L 577.852147 133.720034 
L 579.450394 135.631503 
L 580.857412 137.542971 
L 582.053115 139.454439 
L 583.021652 141.365907 
L 583.752299 143.277375 
L 584.240143 145.188844 
L 584.486417 147.100312 
L 584.498432 149.01178 
L 584.289042 150.923248 
L 583.875631 152.834717 
L 583.278698 154.746185 
L 582.52014 156.657653 
L 581.62145 158.569121 
L 580.60201 160.480589 
L 579.477731 162.392058 
L 578.260212 164.303526 
L 576.956532 166.214994 
L 575.569706 168.126462 
L 574.099712 170.037931 
L 572.544921 171.949399 
L 570.903673 173.860867 
L 569.175747 175.772335 
L 567.363491 177.683803 
L 565.472436 179.595272 
L 563.511339 181.50674 
L 561.491695 183.418208 
L 559.426862 185.329676 
L 557.331007 187.241145 
L 555.218098 189.152613 
L 553.101142 191.064081 
L 550.99181 192.975549 
L 548.900486 194.887017 
L 546.836703 196.798486 
L 544.809822 198.709954 
L 542.829779 200.621422 
L 540.907707 202.53289 
L 539.056248 204.444359 
L 537.289464 206.355827 
L 535.622296 208.267295 
L 534.069615 210.178763 
L 532.645007 212.090231 
L 531.359428 214.0017 
L 530.219956 215.913168 
L 529.228786 217.824636 
L 528.38264 219.736104 
L 527.672667 221.647573 
L 527.084861 223.559041 
L 526.600957 225.470509 
L 526.199706 227.381977 
L 525.858391 229.293445 
L 525.554434 231.204914 
L 525.266924 233.116382 
L 524.977927 235.02785 
L 524.673475 236.939318 
L 524.344154 238.850787 
L 523.98528 240.762255 
L 523.596662 242.673723 
z
" clip-path="url(#pd67906da77)" style="fill: #2a78d6; fill-opacity: 0.6"/>
   </g>
   <g id="FillBetweenPolyCollection_5">
    <path d="M 709.06747 214.986584 
L 704.954027 214.986584 
L 704.740877 213.260214 
L 704.527532 211.533844 
L 704.313522 209.807474 
L 704.097435 208.081104 
L 703.877162 206.354734 
L 703.650264 204.628363 
L 703.414397 202.901993 
L 703.167748 201.175623 
L 702.909406 199.449253 
L 702.639615 197.722883 
L 702.359872 195.996513 
L 702.072814 194.270143 
L 701.781922 192.543773 
L 701.491029 190.817403 
L 701.203711 189.091033 
L 700.922608 187.364663 
L 700.648787 185.638293 
L 700.381227 183.911923 
L 700.116529 182.185552 
L 699.8489 180.459182 
L 699.570449 178.732812 
L 699.271758 177.006442 
L 698.942664 175.280072 
L 698.573153 173.553702 
L 698.154196 171.827332 
L 697.678425 170.100962 
L 697.140492 168.374592 
L 696.537054 166.648222 
L 695.866349 164.921852 
L 695.127417 163.195482 
L 694.319095 161.469112 
L 693.438951 159.742741 
L 692.482369 158.016371 
L 691.441982 156.290001 
L 690.30762 154.563631 
L 689.066831 152.837261 
L 687.705967 151.110891 
L 686.211689 149.384521 
L 684.572692 147.658151 
L 682.781367 145.931781 
L 680.835163 144.205411 
L 678.73744 142.479041 
L 676.497718 140.752671 
L 674.131338 139.0263 
L 671.658669 137.29993 
L 669.104055 135.57356 
L 666.494719 133.84719 
L 663.85982 132.12082 
L 661.229762 130.39445 
L 658.635762 128.66808 
L 656.109608 126.94171 
L 653.683455 125.21534 
L 651.389529 123.48897 
L 649.259608 121.7626 
L 647.32424 120.03623 
L 645.611727 118.30986 
L 644.146968 116.583489 
L 642.9503 114.857119 
L 642.03647 113.130749 
L 641.413893 111.404379 
L 641.08426 109.678009 
L 641.042578 107.951639 
L 641.277652 106.225269 
L 641.772983 104.498899 
L 642.50803 102.772529 
L 643.459725 101.046159 
L 644.604079 99.319789 
L 645.917704 97.593419 
L 647.379018 95.867049 
L 648.968954 94.140678 
L 650.67104 92.414308 
L 652.47082 90.687938 
L 654.354702 88.961568 
L 656.308463 87.235198 
L 658.31569 85.508828 
L 660.356502 83.782458 
L 662.406848 82.056088 
L 664.438581 80.329718 
L 666.420405 78.603348 
L 668.319622 76.876978 
L 670.104511 75.150608 
L 671.747059 73.424238 
L 673.225724 71.697867 
L 674.527924 69.971497 
L 675.651935 68.245127 
L 676.607976 66.518757 
L 677.41832 64.792387 
L 678.116322 63.066017 
L 678.744405 61.339647 
L 679.351083 59.613277 
L 679.987251 57.886907 
L 680.702031 56.160537 
L 681.538568 54.434167 
L 682.530189 52.707797 
L 683.697344 50.981427 
L 685.045695 49.255056 
L 686.565568 47.528686 
L 688.23288 45.802316 
L 690.011413 44.075946 
L 724.010083 44.075946 
L 724.010083 44.075946 
L 725.788617 45.802316 
L 727.455928 47.528686 
L 728.975802 49.255056 
L 730.324152 50.981427 
L 731.491308 52.707797 
L 732.482928 54.434167 
L 733.319466 56.160537 
L 734.034246 57.886907 
L 734.670414 59.613277 
L 735.277092 61.339647 
L 735.905174 63.066017 
L 736.603177 64.792387 
L 737.41352 66.518757 
L 738.369562 68.245127 
L 739.493572 69.971497 
L 740.795773 71.697867 
L 742.274438 73.424238 
L 743.916985 75.150608 
L 745.701875 76.876978 
L 747.601092 78.603348 
L 749.582916 80.329718 
L 751.614649 82.056088 
L 753.664995 83.782458 
L 755.705807 85.508828 
L 757.713034 87.235198 
L 759.666794 88.961568 
L 761.550677 90.687938 
L 763.350456 92.414308 
L 765.052543 94.140678 
L 766.642479 95.867049 
L 768.103792 97.593419 
L 769.417417 99.319789 
L 770.561772 101.046159 
L 771.513467 102.772529 
L 772.248514 104.498899 
L 772.743845 106.225269 
L 772.978919 107.951639 
L 772.937237 109.678009 
L 772.607603 111.404379 
L 771.985026 113.130749 
L 771.071197 114.857119 
L 769.874528 116.583489 
L 768.40977 118.30986 
L 766.697257 120.03623 
L 764.761888 121.7626 
L 762.631967 123.48897 
L 760.338042 125.21534 
L 757.911889 126.94171 
L 755.385734 128.66808 
L 752.791734 130.39445 
L 750.161676 132.12082 
L 747.526778 133.84719 
L 744.917442 135.57356 
L 742.362827 137.29993 
L 739.890159 139.0263 
L 737.523779 140.752671 
L 735.284057 142.479041 
L 733.186334 144.205411 
L 731.24013 145.931781 
L 729.448804 147.658151 
L 727.809807 149.384521 
L 726.31553 151.110891 
L 724.954665 152.837261 
L 723.713877 154.563631 
L 722.579515 156.290001 
L 721.539128 158.016371 
L 720.582545 159.742741 
L 719.702402 161.469112 
L 718.89408 163.195482 
L 718.155148 164.921852 
L 717.484442 166.648222 
L 716.881005 168.374592 
L 716.343072 170.100962 
L 715.867301 171.827332 
L 715.448344 173.553702 
L 715.078832 175.280072 
L 714.749739 177.006442 
L 714.451047 178.732812 
L 714.172597 180.459182 
L 713.904968 182.185552 
L 713.64027 183.911923 
L 713.37271 185.638293 
L 713.098888 187.364663 
L 712.817785 189.091033 
L 712.530467 190.817403 
L 712.239575 192.543773 
L 711.948682 194.270143 
L 711.661625 195.996513 
L 711.381881 197.722883 
L 711.112091 199.449253 
L 710.853748 201.175623 
L 710.607099 202.901993 
L 710.371233 204.628363 
L 710.144334 206.354734 
L 709.924062 208.081104 
L 709.707974 209.807474 
L 709.493965 211.533844 
L 709.28062 213.260214 
L 709.06747 214.986584 
z
" clip-path="url(#pd67906da77)" style="fill: #2a78d6; fill-opacity: 0.6"/>
   </g>
   <g id="matplotlib.axis_3">
    <g id="xtick_4">
     <g id="line2d_24">
      <path d="M 518.530262 271.523823 
L 518.530262 33.245095 
" clip-path="url(#pd67906da77)" style="fill: none; stroke: #b0b0b0; stroke-opacity: 0.25; stroke-width: 0.8; stroke-linecap: square"/>
     </g>
     <g id="line2d_25">
      <g>
       <use xlink:href="#m3194ed9608" x="518.530262" y="271.523823" style="stroke: #000000; stroke-width: 0.8"/>
      </g>
     </g>
     <g id="text_14">
      <!-- r (responsive genes) -->
      <g transform="translate(467.238074 286.12226) scale(0.1 -0.1)">
       <use xlink:href="#DejaVuSans-72"/>
       <use xlink:href="#DejaVuSans-20" transform="translate(41.113281 0)"/>
       <use xlink:href="#DejaVuSans-28" transform="translate(72.900391 0)"/>
       <use xlink:href="#DejaVuSans-72" transform="translate(111.914062 0)"/>
       <use xlink:href="#DejaVuSans-65" transform="translate(150.777344 0)"/>
       <use xlink:href="#DejaVuSans-73" transform="translate(212.300781 0)"/>
       <use xlink:href="#DejaVuSans-70" transform="translate(264.400391 0)"/>
       <use xlink:href="#DejaVuSans-6f" transform="translate(327.876953 0)"/>
       <use xlink:href="#DejaVuSans-6e" transform="translate(389.058594 0)"/>
       <use xlink:href="#DejaVuSans-73" transform="translate(452.4375 0)"/>
       <use xlink:href="#DejaVuSans-69" transform="translate(504.537109 0)"/>
       <use xlink:href="#DejaVuSans-76" transform="translate(532.320312 0)"/>
       <use xlink:href="#DejaVuSans-65" transform="translate(591.5 0)"/>
       <use xlink:href="#DejaVuSans-20" transform="translate(653.023438 0)"/>
       <use xlink:href="#DejaVuSans-67" transform="translate(684.810547 0)"/>
       <use xlink:href="#DejaVuSans-65" transform="translate(748.287109 0)"/>
       <use xlink:href="#DejaVuSans-6e" transform="translate(809.810547 0)"/>
       <use xlink:href="#DejaVuSans-65" transform="translate(873.189453 0)"/>
       <use xlink:href="#DejaVuSans-73" transform="translate(934.712891 0)"/>
       <use xlink:href="#DejaVuSans-29" transform="translate(986.8125 0)"/>
      </g>
     </g>
    </g>
    <g id="xtick_5">
     <g id="line2d_26">
      <path d="M 707.010748 271.523823 
L 707.010748 33.245095 
" clip-path="url(#pd67906da77)" style="fill: none; stroke: #b0b0b0; stroke-opacity: 0.25; stroke-width: 0.8; stroke-linecap: square"/>
     </g>
     <g id="line2d_27">
      <g>
       <use xlink:href="#m3194ed9608" x="707.010748" y="271.523823" style="stroke: #000000; stroke-width: 0.8"/>
      </g>
     </g>
     <g id="text_15">
      <!-- r (top-100 DE) -->
      <g transform="translate(671.324811 286.12226) scale(0.1 -0.1)">
       <defs>
        <path id="DejaVuSans-44" d="M 1259 4147 
L 1259 519 
L 2022 519 
Q 2988 519 3436 956 
Q 3884 1394 3884 2338 
Q 3884 3275 3436 3711 
Q 2988 4147 2022 4147 
L 1259 4147 
z
M 628 4666 
L 1925 4666 
Q 3281 4666 3915 4102 
Q 4550 3538 4550 2338 
Q 4550 1131 3912 565 
Q 3275 0 1925 0 
L 628 0 
L 628 4666 
z
" transform="scale(0.015625)"/>
       </defs>
       <use xlink:href="#DejaVuSans-72"/>
       <use xlink:href="#DejaVuSans-20" transform="translate(41.113281 0)"/>
       <use xlink:href="#DejaVuSans-28" transform="translate(72.900391 0)"/>
       <use xlink:href="#DejaVuSans-74" transform="translate(111.914062 0)"/>
       <use xlink:href="#DejaVuSans-6f" transform="translate(151.123047 0)"/>
       <use xlink:href="#DejaVuSans-70" transform="translate(212.304688 0)"/>
       <use xlink:href="#DejaVuSans-2d" transform="translate(275.78125 0)"/>
       <use xlink:href="#DejaVuSans-31" transform="translate(311.865234 0)"/>
       <use xlink:href="#DejaVuSans-30" transform="translate(375.488281 0)"/>
       <use xlink:href="#DejaVuSans-30" transform="translate(439.111328 0)"/>
       <use xlink:href="#DejaVuSans-20" transform="translate(502.734375 0)"/>
       <use xlink:href="#DejaVuSans-44" transform="translate(534.521484 0)"/>
       <use xlink:href="#DejaVuSans-45" transform="translate(611.523438 0)"/>
       <use xlink:href="#DejaVuSans-29" transform="translate(674.707031 0)"/>
      </g>
     </g>
    </g>
   </g>
   <g id="matplotlib.axis_4">
    <g id="ytick_9">
     <g id="line2d_28">
      <path d="M 436.54125 260.692971 
L 788.99976 260.692971 
" clip-path="url(#pd67906da77)" style="fill: none; stroke: #b0b0b0; stroke-opacity: 0.25; stroke-width: 0.8; stroke-linecap: square"/>
     </g>
     <g id="line2d_29">
      <g>
       <use xlink:href="#m0297278471" x="436.54125" y="260.692971" style="stroke: #000000; stroke-width: 0.8"/>
      </g>
     </g>
     <g id="text_16">
      <!-- 0.0 -->
      <g transform="translate(413.638125 264.49219) scale(0.1 -0.1)">
       <use xlink:href="#DejaVuSans-30"/>
       <use xlink:href="#DejaVuSans-2e" transform="translate(63.623047 0)"/>
       <use xlink:href="#DejaVuSans-30" transform="translate(95.410156 0)"/>
      </g>
     </g>
    </g>
    <g id="ytick_10">
     <g id="line2d_30">
      <path d="M 436.54125 216.507061 
L 788.99976 216.507061 
" clip-path="url(#pd67906da77)" style="fill: none; stroke: #b0b0b0; stroke-opacity: 0.25; stroke-width: 0.8; stroke-linecap: square"/>
     </g>
     <g id="line2d_31">
      <g>
       <use xlink:href="#m0297278471" x="436.54125" y="216.507061" style="stroke: #000000; stroke-width: 0.8"/>
      </g>
     </g>
     <g id="text_17">
      <!-- 0.2 -->
      <g transform="translate(413.638125 220.306279) scale(0.1 -0.1)">
       <use xlink:href="#DejaVuSans-30"/>
       <use xlink:href="#DejaVuSans-2e" transform="translate(63.623047 0)"/>
       <use xlink:href="#DejaVuSans-32" transform="translate(95.410156 0)"/>
      </g>
     </g>
    </g>
    <g id="ytick_11">
     <g id="line2d_32">
      <path d="M 436.54125 172.32115 
L 788.99976 172.32115 
" clip-path="url(#pd67906da77)" style="fill: none; stroke: #b0b0b0; stroke-opacity: 0.25; stroke-width: 0.8; stroke-linecap: square"/>
     </g>
     <g id="line2d_33">
      <g>
       <use xlink:href="#m0297278471" x="436.54125" y="172.32115" style="stroke: #000000; stroke-width: 0.8"/>
      </g>
     </g>
     <g id="text_18">
      <!-- 0.4 -->
      <g transform="translate(413.638125 176.120369) scale(0.1 -0.1)">
       <defs>
        <path id="DejaVuSans-34" d="M 2419 4116 
L 825 1625 
L 2419 1625 
L 2419 4116 
z
M 2253 4666 
L 3047 4666 
L 3047 1625 
L 3713 1625 
L 3713 1100 
L 3047 1100 
L 3047 0 
L 2419 0 
L 2419 1100 
L 313 1100 
L 313 1709 
L 2253 4666 
z
" transform="scale(0.015625)"/>
       </defs>
       <use xlink:href="#DejaVuSans-30"/>
       <use xlink:href="#DejaVuSans-2e" transform="translate(63.623047 0)"/>
       <use xlink:href="#DejaVuSans-34" transform="translate(95.410156 0)"/>
      </g>
     </g>
    </g>
    <g id="ytick_12">
     <g id="line2d_34">
      <path d="M 436.54125 128.135239 
L 788.99976 128.135239 
" clip-path="url(#pd67906da77)" style="fill: none; stroke: #b0b0b0; stroke-opacity: 0.25; stroke-width: 0.8; stroke-linecap: square"/>
     </g>
     <g id="line2d_35">
      <g>
       <use xlink:href="#m0297278471" x="436.54125" y="128.135239" style="stroke: #000000; stroke-width: 0.8"/>
      </g>
     </g>
     <g id="text_19">
      <!-- 0.6 -->
      <g transform="translate(413.638125 131.934458) scale(0.1 -0.1)">
       <defs>
        <path id="DejaVuSans-36" d="M 2113 2584 
Q 1688 2584 1439 2293 
Q 1191 2003 1191 1497 
Q 1191 994 1439 701 
Q 1688 409 2113 409 
Q 2538 409 2786 701 
Q 3034 994 3034 1497 
Q 3034 2003 2786 2293 
Q 2538 2584 2113 2584 
z
M 3366 4563 
L 3366 3988 
Q 3128 4100 2886 4159 
Q 2644 4219 2406 4219 
Q 1781 4219 1451 3797 
Q 1122 3375 1075 2522 
Q 1259 2794 1537 2939 
Q 1816 3084 2150 3084 
Q 2853 3084 3261 2657 
Q 3669 2231 3669 1497 
Q 3669 778 3244 343 
Q 2819 -91 2113 -91 
Q 1303 -91 875 529 
Q 447 1150 447 2328 
Q 447 3434 972 4092 
Q 1497 4750 2381 4750 
Q 2619 4750 2861 4703 
Q 3103 4656 3366 4563 
z
" transform="scale(0.015625)"/>
       </defs>
       <use xlink:href="#DejaVuSans-30"/>
       <use xlink:href="#DejaVuSans-2e" transform="translate(63.623047 0)"/>
       <use xlink:href="#DejaVuSans-36" transform="translate(95.410156 0)"/>
      </g>
     </g>
    </g>
    <g id="ytick_13">
     <g id="line2d_36">
      <path d="M 436.54125 83.949329 
L 788.99976 83.949329 
" clip-path="url(#pd67906da77)" style="fill: none; stroke: #b0b0b0; stroke-opacity: 0.25; stroke-width: 0.8; stroke-linecap: square"/>
     </g>
     <g id="line2d_37">
      <g>
       <use xlink:href="#m0297278471" x="436.54125" y="83.949329" style="stroke: #000000; stroke-width: 0.8"/>
      </g>
     </g>
     <g id="text_20">
      <!-- 0.8 -->
      <g transform="translate(413.638125 87.748547) scale(0.1 -0.1)">
       <defs>
        <path id="DejaVuSans-38" d="M 2034 2216 
Q 1584 2216 1326 1975 
Q 1069 1734 1069 1313 
Q 1069 891 1326 650 
Q 1584 409 2034 409 
Q 2484 409 2743 651 
Q 3003 894 3003 1313 
Q 3003 1734 2745 1975 
Q 2488 2216 2034 2216 
z
M 1403 2484 
Q 997 2584 770 2862 
Q 544 3141 544 3541 
Q 544 4100 942 4425 
Q 1341 4750 2034 4750 
Q 2731 4750 3128 4425 
Q 3525 4100 3525 3541 
Q 3525 3141 3298 2862 
Q 3072 2584 2669 2484 
Q 3125 2378 3379 2068 
Q 3634 1759 3634 1313 
Q 3634 634 3220 271 
Q 2806 -91 2034 -91 
Q 1263 -91 848 271 
Q 434 634 434 1313 
Q 434 1759 690 2068 
Q 947 2378 1403 2484 
z
M 1172 3481 
Q 1172 3119 1398 2916 
Q 1625 2713 2034 2713 
Q 2441 2713 2670 2916 
Q 2900 3119 2900 3481 
Q 2900 3844 2670 4047 
Q 2441 4250 2034 4250 
Q 1625 4250 1398 4047 
Q 1172 3844 1172 3481 
z
" transform="scale(0.015625)"/>
       </defs>
       <use xlink:href="#DejaVuSans-30"/>
       <use xlink:href="#DejaVuSans-2e" transform="translate(63.623047 0)"/>
       <use xlink:href="#DejaVuSans-38" transform="translate(95.410156 0)"/>
      </g>
     </g>
    </g>
    <g id="ytick_14">
     <g id="line2d_38">
      <path d="M 436.54125 39.763418 
L 788.99976 39.763418 
" clip-path="url(#pd67906da77)" style="fill: none; stroke: #b0b0b0; stroke-opacity: 0.25; stroke-width: 0.8; stroke-linecap: square"/>
     </g>
     <g id="line2d_39">
      <g>
       <use xlink:href="#m0297278471" x="436.54125" y="39.763418" style="stroke: #000000; stroke-width: 0.8"/>
      </g>
     </g>
     <g id="text_21">
      <!-- 1.0 -->
      <g transform="translate(413.638125 43.562637) scale(0.1 -0.1)">
       <use xlink:href="#DejaVuSans-31"/>
       <use xlink:href="#DejaVuSans-2e" transform="translate(63.623047 0)"/>
       <use xlink:href="#DejaVuSans-30" transform="translate(95.410156 0)"/>
      </g>
     </g>
    </g>
    <g id="text_22">
     <!-- Pearson r (predicted vs true delta) -->
     <g transform="translate(407.558437 238.355553) rotate(-90) scale(0.1 -0.1)">
      <defs>
       <path id="DejaVuSans-50" d="M 1259 4147 
L 1259 2394 
L 2053 2394 
Q 2494 2394 2734 2622 
Q 2975 2850 2975 3272 
Q 2975 3691 2734 3919 
Q 2494 4147 2053 4147 
L 1259 4147 
z
M 628 4666 
L 2053 4666 
Q 2838 4666 3239 4311 
Q 3641 3956 3641 3272 
Q 3641 2581 3239 2228 
Q 2838 1875 2053 1875 
L 1259 1875 
L 1259 0 
L 628 0 
L 628 4666 
z
" transform="scale(0.015625)"/>
       <path id="DejaVuSans-75" d="M 544 1381 
L 544 3500 
L 1119 3500 
L 1119 1403 
Q 1119 906 1312 657 
Q 1506 409 1894 409 
Q 2359 409 2629 706 
Q 2900 1003 2900 1516 
L 2900 3500 
L 3475 3500 
L 3475 0 
L 2900 0 
L 2900 538 
Q 2691 219 2414 64 
Q 2138 -91 1772 -91 
Q 1169 -91 856 284 
Q 544 659 544 1381 
z
M 1991 3584 
L 1991 3584 
z
" transform="scale(0.015625)"/>
      </defs>
      <use xlink:href="#DejaVuSans-50"/>
      <use xlink:href="#DejaVuSans-65" transform="translate(56.677734 0)"/>
      <use xlink:href="#DejaVuSans-61" transform="translate(118.201172 0)"/>
      <use xlink:href="#DejaVuSans-72" transform="translate(179.480469 0)"/>
      <use xlink:href="#DejaVuSans-73" transform="translate(220.59375 0)"/>
      <use xlink:href="#DejaVuSans-6f" transform="translate(272.693359 0)"/>
      <use xlink:href="#DejaVuSans-6e" transform="translate(333.875 0)"/>
      <use xlink:href="#DejaVuSans-20" transform="translate(397.253906 0)"/>
      <use xlink:href="#DejaVuSans-72" transform="translate(429.041016 0)"/>
      <use xlink:href="#DejaVuSans-20" transform="translate(470.154297 0)"/>
      <use xlink:href="#DejaVuSans-28" transform="translate(501.941406 0)"/>
      <use xlink:href="#DejaVuSans-70" transform="translate(540.955078 0)"/>
      <use xlink:href="#DejaVuSans-72" transform="translate(604.431641 0)"/>
      <use xlink:href="#DejaVuSans-65" transform="translate(643.294922 0)"/>
      <use xlink:href="#DejaVuSans-64" transform="translate(704.818359 0)"/>
      <use xlink:href="#DejaVuSans-69" transform="translate(768.294922 0)"/>
      <use xlink:href="#DejaVuSans-63" transform="translate(796.078125 0)"/>
      <use xlink:href="#DejaVuSans-74" transform="translate(851.058594 0)"/>
      <use xlink:href="#DejaVuSans-65" transform="translate(890.267578 0)"/>
      <use xlink:href="#DejaVuSans-64" transform="translate(951.791016 0)"/>
      <use xlink:href="#DejaVuSans-20" transform="translate(1015.267578 0)"/>
      <use xlink:href="#DejaVuSans-76" transform="translate(1047.054688 0)"/>
      <use xlink:href="#DejaVuSans-73" transform="translate(1106.234375 0)"/>
      <use xlink:href="#DejaVuSans-20" transform="translate(1158.333984 0)"/>
      <use xlink:href="#DejaVuSans-74" transform="translate(1190.121094 0)"/>
      <use xlink:href="#DejaVuSans-72" transform="translate(1229.330078 0)"/>
      <use xlink:href="#DejaVuSans-75" transform="translate(1270.443359 0)"/>
      <use xlink:href="#DejaVuSans-65" transform="translate(1333.822266 0)"/>
      <use xlink:href="#DejaVuSans-20" transform="translate(1395.345703 0)"/>
      <use xlink:href="#DejaVuSans-64" transform="translate(1427.132812 0)"/>
      <use xlink:href="#DejaVuSans-65" transform="translate(1490.609375 0)"/>
      <use xlink:href="#DejaVuSans-6c" transform="translate(1552.132812 0)"/>
      <use xlink:href="#DejaVuSans-74" transform="translate(1579.916016 0)"/>
      <use xlink:href="#DejaVuSans-61" transform="translate(1619.125 0)"/>
      <use xlink:href="#DejaVuSans-29" transform="translate(1680.404297 0)"/>
     </g>
    </g>
   </g>
   <g id="LineCollection_2">
    <path d="M 485.546177 145.263329 
L 551.514347 145.263329 
" clip-path="url(#pd67906da77)" style="fill: none; stroke: #333333; stroke-width: 1.5"/>
    <path d="M 674.026663 105.783316 
L 739.994833 105.783316 
" clip-path="url(#pd67906da77)" style="fill: none; stroke: #333333; stroke-width: 1.5"/>
   </g>
   <g id="patch_6">
    <path d="M 436.54125 271.523823 
L 436.54125 33.245095 
" style="fill: none; stroke: #000000; stroke-width: 0.8; stroke-linejoin: miter; stroke-linecap: square"/>
   </g>
   <g id="patch_7">
    <path d="M 436.54125 271.523823 
L 788.99976 271.523823 
" style="fill: none; stroke: #000000; stroke-width: 0.8; stroke-linejoin: miter; stroke-linecap: square"/>
   </g>
   <g id="text_23">
    <!-- B  Pseudobulk delta accuracy -->
    <g transform="translate(436.54125 27.245095) scale(0.1 -0.1)">
     <defs>
      <path id="DejaVuSans-Bold-42" d="M 2456 2859 
Q 2741 2859 2887 2984 
Q 3034 3109 3034 3353 
Q 3034 3594 2887 3720 
Q 2741 3847 2456 3847 
L 1791 3847 
L 1791 2859 
L 2456 2859 
z
M 2497 819 
Q 2859 819 3042 972 
Q 3225 1125 3225 1434 
Q 3225 1738 3044 1889 
Q 2863 2041 2497 2041 
L 1791 2041 
L 1791 819 
L 2497 819 
z
M 3616 2497 
Q 4003 2384 4215 2081 
Q 4428 1778 4428 1338 
Q 4428 663 3972 331 
Q 3516 0 2584 0 
L 588 0 
L 588 4666 
L 2394 4666 
Q 3366 4666 3802 4372 
Q 4238 4078 4238 3431 
Q 4238 3091 4078 2852 
Q 3919 2613 3616 2497 
z
" transform="scale(0.015625)"/>
      <path id="DejaVuSans-Bold-62" d="M 2400 722 
Q 2759 722 2948 984 
Q 3138 1247 3138 1747 
Q 3138 2247 2948 2509 
Q 2759 2772 2400 2772 
Q 2041 2772 1848 2508 
Q 1656 2244 1656 1747 
Q 1656 1250 1848 986 
Q 2041 722 2400 722 
z
M 1656 2988 
Q 1888 3294 2169 3439 
Q 2450 3584 2816 3584 
Q 3463 3584 3878 3070 
Q 4294 2556 4294 1747 
Q 4294 938 3878 423 
Q 3463 -91 2816 -91 
Q 2450 -91 2169 54 
Q 1888 200 1656 506 
L 1656 0 
L 538 0 
L 538 4863 
L 1656 4863 
L 1656 2988 
z
" transform="scale(0.015625)"/>
      <path id="DejaVuSans-Bold-6b" d="M 538 4863 
L 1656 4863 
L 1656 2216 
L 2944 3500 
L 4244 3500 
L 2534 1894 
L 4378 0 
L 3022 0 
L 1656 1459 
L 1656 0 
L 538 0 
L 538 4863 
z
" transform="scale(0.015625)"/>
      <path id="DejaVuSans-Bold-72" d="M 3138 2547 
Q 2991 2616 2845 2648 
Q 2700 2681 2553 2681 
Q 2122 2681 1889 2404 
Q 1656 2128 1656 1613 
L 1656 0 
L 538 0 
L 538 3500 
L 1656 3500 
L 1656 2925 
Q 1872 3269 2151 3426 
Q 2431 3584 2822 3584 
Q 2878 3584 2943 3579 
Q 3009 3575 3134 3559 
L 3138 2547 
z
" transform="scale(0.015625)"/>
      <path id="DejaVuSans-Bold-79" d="M 78 3500 
L 1197 3500 
L 2138 1125 
L 2938 3500 
L 4056 3500 
L 2584 -331 
Q 2363 -916 2067 -1148 
Q 1772 -1381 1288 -1381 
L 641 -1381 
L 641 -647 
L 991 -647 
Q 1275 -647 1404 -556 
Q 1534 -466 1606 -231 
L 1638 -134 
L 78 3500 
z
" transform="scale(0.015625)"/>
     </defs>
     <use xlink:href="#DejaVuSans-Bold-42"/>
     <use xlink:href="#DejaVuSans-Bold-20" transform="translate(76.220703 0)"/>
     <use xlink:href="#DejaVuSans-Bold-20" transform="translate(111.035156 0)"/>
     <use xlink:href="#DejaVuSans-Bold-50" transform="translate(145.849609 0)"/>
     <use xlink:href="#DejaVuSans-Bold-73" transform="translate(217.390625 0)"/>
     <use xlink:href="#DejaVuSans-Bold-65" transform="translate(276.912109 0)"/>
     <use xlink:href="#DejaVuSans-Bold-75" transform="translate(344.734375 0)"/>
     <use xlink:href="#DejaVuSans-Bold-64" transform="translate(415.925781 0)"/>
     <use xlink:href="#DejaVuSans-Bold-6f" transform="translate(487.507812 0)"/>
     <use xlink:href="#DejaVuSans-Bold-62" transform="translate(556.208984 0)"/>
     <use xlink:href="#DejaVuSans-Bold-75" transform="translate(627.791016 0)"/>
     <use xlink:href="#DejaVuSans-Bold-6c" transform="translate(698.982422 0)"/>
     <use xlink:href="#DejaVuSans-Bold-6b" transform="translate(733.259766 0)"/>
     <use xlink:href="#DejaVuSans-Bold-20" transform="translate(799.763672 0)"/>
     <use xlink:href="#DejaVuSans-Bold-64" transform="translate(834.578125 0)"/>
     <use xlink:href="#DejaVuSans-Bold-65" transform="translate(906.160156 0)"/>
     <use xlink:href="#DejaVuSans-Bold-6c" transform="translate(973.982422 0)"/>
     <use xlink:href="#DejaVuSans-Bold-74" transform="translate(1008.259766 0)"/>
     <use xlink:href="#DejaVuSans-Bold-61" transform="translate(1056.0625 0)"/>
     <use xlink:href="#DejaVuSans-Bold-20" transform="translate(1123.542969 0)"/>
     <use xlink:href="#DejaVuSans-Bold-61" transform="translate(1158.357422 0)"/>
     <use xlink:href="#DejaVuSans-Bold-63" transform="translate(1225.837891 0)"/>
     <use xlink:href="#DejaVuSans-Bold-63" transform="translate(1285.115234 0)"/>
     <use xlink:href="#DejaVuSans-Bold-75" transform="translate(1344.392578 0)"/>
     <use xlink:href="#DejaVuSans-Bold-72" transform="translate(1415.583984 0)"/>
     <use xlink:href="#DejaVuSans-Bold-61" transform="translate(1464.900391 0)"/>
     <use xlink:href="#DejaVuSans-Bold-63" transform="translate(1532.380859 0)"/>
     <use xlink:href="#DejaVuSans-Bold-79" transform="translate(1591.658203 0)"/>
    </g>
   </g>
  </g>
  <g id="text_24">
   <!-- Phase 3 model 2: conditional VAE generation quality -->
   <g transform="translate(7.92 11.358521) scale(0.11 -0.11)">
    <defs>
     <path id="DejaVuSans-6d" d="M 3328 2828 
Q 3544 3216 3844 3400 
Q 4144 3584 4550 3584 
Q 5097 3584 5394 3201 
Q 5691 2819 5691 2113 
L 5691 0 
L 5113 0 
L 5113 2094 
Q 5113 2597 4934 2840 
Q 4756 3084 4391 3084 
Q 3944 3084 3684 2787 
Q 3425 2491 3425 1978 
L 3425 0 
L 2847 0 
L 2847 2094 
Q 2847 2600 2669 2842 
Q 2491 3084 2119 3084 
Q 1678 3084 1418 2786 
Q 1159 2488 1159 1978 
L 1159 0 
L 581 0 
L 581 3500 
L 1159 3500 
L 1159 2956 
Q 1356 3278 1631 3431 
Q 1906 3584 2284 3584 
Q 2666 3584 2933 3390 
Q 3200 3197 3328 2828 
z
" transform="scale(0.015625)"/>
     <path id="DejaVuSans-3a" d="M 750 794 
L 1409 794 
L 1409 0 
L 750 0 
L 750 794 
z
M 750 3309 
L 1409 3309 
L 1409 2516 
L 750 2516 
L 750 3309 
z
" transform="scale(0.015625)"/>
     <path id="DejaVuSans-56" d="M 1831 0 
L 50 4666 
L 709 4666 
L 2188 738 
L 3669 4666 
L 4325 4666 
L 2547 0 
L 1831 0 
z
" transform="scale(0.015625)"/>
     <path id="DejaVuSans-41" d="M 2188 4044 
L 1331 1722 
L 3047 1722 
L 2188 4044 
z
M 1831 4666 
L 2547 4666 
L 4325 0 
L 3669 0 
L 3244 1197 
L 1141 1197 
L 716 0 
L 50 0 
L 1831 4666 
z
" transform="scale(0.015625)"/>
     <path id="DejaVuSans-71" d="M 947 1747 
Q 947 1113 1208 752 
Q 1469 391 1925 391 
Q 2381 391 2643 752 
Q 2906 1113 2906 1747 
Q 2906 2381 2643 2742 
Q 2381 3103 1925 3103 
Q 1469 3103 1208 2742 
Q 947 2381 947 1747 
z
M 2906 525 
Q 2725 213 2448 61 
Q 2172 -91 1784 -91 
Q 1150 -91 751 415 
Q 353 922 353 1747 
Q 353 2572 751 3078 
Q 1150 3584 1784 3584 
Q 2172 3584 2448 3432 
Q 2725 3281 2906 2969 
L 2906 3500 
L 3481 3500 
L 3481 -1331 
L 2906 -1331 
L 2906 525 
z
" transform="scale(0.015625)"/>
     <path id="DejaVuSans-79" d="M 2059 -325 
Q 1816 -950 1584 -1140 
Q 1353 -1331 966 -1331 
L 506 -1331 
L 506 -850 
L 844 -850 
Q 1081 -850 1212 -737 
Q 1344 -625 1503 -206 
L 1606 56 
L 191 3500 
L 800 3500 
L 1894 763 
L 2988 3500 
L 3597 3500 
L 2059 -325 
z
" transform="scale(0.015625)"/>
    </defs>
    <use xlink:href="#DejaVuSans-50"/>
    <use xlink:href="#DejaVuSans-68" transform="translate(60.302734 0)"/>
    <use xlink:href="#DejaVuSans-61" transform="translate(123.681641 0)"/>
    <use xlink:href="#DejaVuSans-73" transform="translate(184.960938 0)"/>
    <use xlink:href="#DejaVuSans-65" transform="translate(237.060547 0)"/>
    <use xlink:href="#DejaVuSans-20" transform="translate(298.583984 0)"/>
    <use xlink:href="#DejaVuSans-33" transform="translate(330.371094 0)"/>
    <use xlink:href="#DejaVuSans-20" transform="translate(393.994141 0)"/>
    <use xlink:href="#DejaVuSans-6d" transform="translate(425.78125 0)"/>
    <use xlink:href="#DejaVuSans-6f" transform="translate(523.193359 0)"/>
    <use xlink:href="#DejaVuSans-64" transform="translate(584.375 0)"/>
    <use xlink:href="#DejaVuSans-65" transform="translate(647.851562 0)"/>
    <use xlink:href="#DejaVuSans-6c" transform="translate(709.375 0)"/>
    <use xlink:href="#DejaVuSans-20" transform="translate(737.158203 0)"/>
    <use xlink:href="#DejaVuSans-32" transform="translate(768.945312 0)"/>
    <use xlink:href="#DejaVuSans-3a" transform="translate(832.568359 0)"/>
    <use xlink:href="#DejaVuSans-20" transform="translate(866.259766 0)"/>
    <use xlink:href="#DejaVuSans-63" transform="translate(898.046875 0)"/>
    <use xlink:href="#DejaVuSans-6f" transform="translate(953.027344 0)"/>
    <use xlink:href="#DejaVuSans-6e" transform="translate(1014.208984 0)"/>
    <use xlink:href="#DejaVuSans-64" transform="translate(1077.587891 0)"/>
    <use xlink:href="#DejaVuSans-69" transform="translate(1141.064453 0)"/>
    <use xlink:href="#DejaVuSans-74" transform="translate(1168.847656 0)"/>
    <use xlink:href="#DejaVuSans-69" transform="translate(1208.056641 0)"/>
    <use xlink:href="#DejaVuSans-6f" transform="translate(1235.839844 0)"/>
    <use xlink:href="#DejaVuSans-6e" transform="translate(1297.021484 0)"/>
    <use xlink:href="#DejaVuSans-61" transform="translate(1360.400391 0)"/>
    <use xlink:href="#DejaVuSans-6c" transform="translate(1421.679688 0)"/>
    <use xlink:href="#DejaVuSans-20" transform="translate(1449.462891 0)"/>
    <use xlink:href="#DejaVuSans-56" transform="translate(1481.25 0)"/>
    <use xlink:href="#DejaVuSans-41" transform="translate(1543.283203 0)"/>
    <use xlink:href="#DejaVuSans-45" transform="translate(1611.691406 0)"/>
    <use xlink:href="#DejaVuSans-20" transform="translate(1674.875 0)"/>
    <use xlink:href="#DejaVuSans-67" transform="translate(1706.662109 0)"/>
    <use xlink:href="#DejaVuSans-65" transform="translate(1770.138672 0)"/>
    <use xlink:href="#DejaVuSans-6e" transform="translate(1831.662109 0)"/>
    <use xlink:href="#DejaVuSans-65" transform="translate(1895.041016 0)"/>
    <use xlink:href="#DejaVuSans-72" transform="translate(1956.564453 0)"/>
    <use xlink:href="#DejaVuSans-61" transform="translate(1997.677734 0)"/>
    <use xlink:href="#DejaVuSans-74" transform="translate(2058.957031 0)"/>
    <use xlink:href="#DejaVuSans-69" transform="translate(2098.166016 0)"/>
    <use xlink:href="#DejaVuSans-6f" transform="translate(2125.949219 0)"/>
    <use xlink:href="#DejaVuSans-6e" transform="translate(2187.130859 0)"/>
    <use xlink:href="#DejaVuSans-20" transform="translate(2250.509766 0)"/>
    <use xlink:href="#DejaVuSans-71" transform="translate(2282.296875 0)"/>
    <use xlink:href="#DejaVuSans-75" transform="translate(2345.773438 0)"/>
    <use xlink:href="#DejaVuSans-61" transform="translate(2409.152344 0)"/>
    <use xlink:href="#DejaVuSans-6c" transform="translate(2470.431641 0)"/>
    <use xlink:href="#DejaVuSans-69" transform="translate(2498.214844 0)"/>
    <use xlink:href="#DejaVuSans-74" transform="translate(2525.998047 0)"/>
    <use xlink:href="#DejaVuSans-79" transform="translate(2565.207031 0)"/>
   </g>
  </g>
 </g>
 <defs>
  <clipPath id="p4ba54043cd">
   <rect x="39.58149" y="33.245095" width="352.45851" height="238.278728"/>
  </clipPath>
  <clipPath id="pd67906da77">
   <rect x="436.54125" y="33.245095" width="352.45851" height="238.278728"/>
  </clipPath>
 </defs>
</svg>
